<svg id="background" xmlns="http://www.w3.org/2000/svg" width="1239.472" height="469.031" viewBox="0 0 1239.472 469.031">
  <defs>
    <style>
      .cls-1 {
        fill: #fff;
        fill-rule: evenodd;
      }
    </style>
  </defs>
  <path id="icon_4" data-name="icon 4" class="cls-1" d="M1218.19,491.948l-6.57-2.378a2.006,2.006,0,0,0-2.58,1.237l-28.34,83.144a1.989,1.989,0,0,0,1.21,2.511l4.69,1.7a2,2,0,0,0,2.56-1.194l30.22-82.465a1.967,1.967,0,0,0-.07-1.524A1.99,1.99,0,0,0,1218.19,491.948Zm-32.1,81.785-0.98-.355,27.05-79.365,2.78,1Zm43.39-92.029a1.989,1.989,0,0,0-1.51-.341l-6.89,1.22a1.995,1.995,0,0,0-1.62,2.312l15.12,86.364a1.99,1.99,0,0,0,2.31,1.614l4.92-.872a1.874,1.874,0,0,0,.5-0.157,2.005,2.005,0,0,0,1.14-2.109l-13.16-86.713A1.972,1.972,0,0,0,1229.48,481.7Zm9.72,86.713-1.03.182-14.43-82.439,2.91-.515Zm-32.18,2.408a13.945,13.945,0,1,0,18.58,6.726A13.984,13.984,0,0,0,1207.02,570.825Zm10.1,21.668a9.962,9.962,0,1,1,4.85-13.252A9.99,9.99,0,0,1,1217.12,592.493Zm-0.91-13.663-2.83-1.023a4.008,4.008,0,0,0-5.11,2.38l-1.03,2.823a3.96,3.96,0,0,0,2.37,5.089l2.83,1.024a4.01,4.01,0,0,0,5.11-2.381l1.03-2.823A3.961,3.961,0,0,0,1216.21,578.83Zm-2.41,6.541-2.8-1.015,1.02-2.8,2.8,1.014Zm-4.99-46.593a2,2,0,0,0-2.56,1.195l-2.82,7.691a1.984,1.984,0,0,0,1.19,2.554,2,2,0,0,0,2.56-1.195l2.82-7.691A1.992,1.992,0,0,0,1208.81,538.778Zm-4.79,13.071a2,2,0,0,0-2.56,1.195l-0.02.054a1.994,1.994,0,0,0,3.75,1.359l0.02-.054A1.984,1.984,0,0,0,1204.02,551.849Z" transform="translate(-202.688 -195.594)"/>
  <path id="icon_3" data-name="icon 3" class="cls-1" d="M239.131,308.61a2.4,2.4,0,0,0-3.106,1.366c-1.529,3.946-6.177,6.877-8.8,7.395a2.39,2.39,0,0,0,.1,4.709,2.432,2.432,0,0,0,.841-0.017c4.434-.874,10.265-4.988,12.347-10.359A2.39,2.39,0,0,0,239.131,308.61Zm14.227,9.582a16.834,16.834,0,0,0-4.038-7.45,2.409,2.409,0,0,0-3.4-.038,2.384,2.384,0,0,0-.033,3.382,12.047,12.047,0,0,1,2.822,5.318A2.4,2.4,0,0,0,253.358,318.192Zm-1.432,5.15a2.4,2.4,0,0,0-2.9,1.754c0,0.023-.012.052-0.017,0.078a2.394,2.394,0,0,0,1.794,2.838q0.091,0.022.183,0.036a2.4,2.4,0,0,0,2.707-1.809c0-.016.01-0.039,0.014-0.059A2.4,2.4,0,0,0,251.926,323.342Zm70.716-23.977c-4.185-6.218-9.972-11.426-15.48-13.932l-0.157-.071c-0.4-.184-0.751-0.342-1.06-0.5a15.688,15.688,0,0,0,.945-3.461c0.856-5.436-1-11.892-5.236-18.18-3.8-5.648-9.062-10.381-14.073-12.66l-0.142-.065c-1.578-.717-2.168-0.985-2.868-2.559a5.88,5.88,0,0,0-4.465-3.945,5.277,5.277,0,0,0-5.226,2.284c-1,1.31-1.772,1.409-3.831,1.673l-0.523.068c-5.063.672-11.653,3.718-17.2,7.949-3.659,2.791-9.956,8.486-11.024,15.264-1.112,7.067,2.172,12.435,9.762,15.955,5.045,2.34,11.4,3.579,17.036,4.5-3.629,2.825-9.223,7.99-11.185,14.182a29.638,29.638,0,0,0-5.214-3.109l-0.156-.071c-1.762-.8-2.492-1.132-3.307-2.966-0.58-1.3-1.659-3.731-4.75-4.217a5.6,5.6,0,0,0-5.542,2.431c-1.176,1.538-2.125,1.659-4.417,1.952l-0.577.075c-5.565.74-12.817,4.094-18.925,8.754-4.022,3.068-10.944,9.324-12.112,16.743-1.212,7.7,2.376,13.554,10.665,17.4,6.573,3.049,15.195,4.406,22.123,5.5s15.549,2.449,22.742,1.568c9.069-1.112,14.282-5.579,15.5-13.279a22.011,22.011,0,0,0-.647-9.125,121.2,121.2,0,0,0,16.868,3.509c6.928,1.091,15.549,2.448,22.742,1.567,9.069-1.111,14.282-5.578,15.5-13.278C329.339,313.362,327.294,306.275,322.642,299.365Zm-75.591-27.387c1.278-8.115,15.109-18.023,24.117-19.22l0.5-.064c2.369-.3,4.818-0.618,7.035-3.517,0.385-.5.524-0.481,0.658-0.46,0.243,0.038.368,0.141,0.821,1.159a8.832,8.832,0,0,0,5.267,4.971l0.14,0.063c8.435,3.838,17.517,15.95,16.642,25.035a5.373,5.373,0,0,0-3.283-1.767,5.6,5.6,0,0,0-5.542,2.431c-1.176,1.538-2.124,1.659-4.416,1.953l-0.578.075a38.539,38.539,0,0,0-13.508,5.128c-0.695-.1-1.383-0.211-2.059-0.322C257.774,285.069,245.431,282.268,247.051,271.978Zm-10.6,71.654c-16.833-2.651-30.617-5.791-28.786-17.423,1.43-9.082,16.875-20.167,26.933-21.5q0.282-.037.554-0.071c2.572-.33,5.231-0.67,7.622-3.8,0.519-.679.761-0.641,0.974-0.607,0.4,0.062.577,0.246,1.106,1.434a9.567,9.567,0,0,0,5.706,5.376l0.153,0.07a28.378,28.378,0,0,1,7.061,4.795,2.451,2.451,0,0,0,.376.343A39.833,39.833,0,0,1,267,324.269a2.3,2.3,0,0,0,.154.335c1.742,3.858,2.592,7.8,2.042,11.294C267.365,347.53,253.283,346.282,236.45,343.632ZM290.908,326.3c-6.268-.987-14-2.207-19.859-4.68a41.954,41.954,0,0,0-2.865-4.932,45.872,45.872,0,0,0-6.125-7.313c0.02-.166.037-0.333,0.063-0.5,0.89-5.651,7.206-12.077,14.274-16.448a2.392,2.392,0,0,0,.484-0.3,33.757,33.757,0,0,1,12.175-4.76l0.556-.072c2.571-.329,5.23-0.67,7.62-3.8,0.519-.679.761-0.641,0.974-0.608,0.4,0.063.577,0.247,1.106,1.435a10.326,10.326,0,0,0,1.752,2.78,2.363,2.363,0,0,0,.175.187,11.244,11.244,0,0,0,3.779,2.408l0.153,0.07c9.669,4.4,20.1,18.547,18.485,28.788C321.823,330.2,307.741,328.955,290.908,326.3Zm2.681-35.021a2.4,2.4,0,0,0-3.106,1.366c-1.53,3.945-6.177,6.876-8.8,7.394a2.393,2.393,0,0,0,.939,4.692c4.434-.873,10.265-4.987,12.347-10.358A2.391,2.391,0,0,0,293.589,291.283Zm12.8,14.732a2.4,2.4,0,0,0-2.9,1.754c-0.005.022-.012,0.052-0.017,0.077a2.4,2.4,0,0,0,1.794,2.839c0.061,0.015.122,0.026,0.183,0.036a2.4,2.4,0,0,0,2.707-1.809c0-.017.009-0.039,0.014-0.059A2.4,2.4,0,0,0,306.384,306.015Zm1.432-5.151a16.844,16.844,0,0,0-4.038-7.45,2.41,2.41,0,0,0-3.4-.037,2.384,2.384,0,0,0-.033,3.382,12.043,12.043,0,0,1,2.822,5.317A2.4,2.4,0,0,0,307.816,300.864ZM274.2,256.517a2.4,2.4,0,0,0-3.105,1.366c-1.53,3.946-6.177,6.877-8.8,7.4a2.39,2.39,0,0,0,.1,4.709,2.413,2.413,0,0,0,.842-0.017c4.434-.874,10.264-4.988,12.347-10.359A2.392,2.392,0,0,0,274.2,256.517Zm14.227,9.582a16.823,16.823,0,0,0-4.038-7.45,2.41,2.41,0,0,0-3.4-.038,2.384,2.384,0,0,0-.033,3.382,12.054,12.054,0,0,1,2.823,5.317A2.4,2.4,0,0,0,288.423,266.1Zm-1.431,5.15a2.4,2.4,0,0,0-2.9,1.755l-0.018.077a2.4,2.4,0,0,0,1.8,2.838c0.061,0.015.122,0.027,0.183,0.037a2.4,2.4,0,0,0,2.707-1.809c0-.017.009-0.04,0.014-0.06A2.4,2.4,0,0,0,286.992,271.249Z" transform="translate(-202.688 -195.594)"/>
  <path id="icon_2" data-name="icon 2" class="cls-1" d="M351.583,641.054l-0.042.009a1.5,1.5,0,1,0,.626,2.934l0.042-.01A1.5,1.5,0,1,0,351.583,641.054Zm6.532,15.168-0.042.009a1.5,1.5,0,1,0,.626,2.933l0.043-.009A1.5,1.5,0,1,0,358.115,656.222Zm26.96-6.448-0.042.009a1.5,1.5,0,1,0,.627,2.934l0.042-.009A1.5,1.5,0,1,0,385.075,649.774Zm-12.6.428-0.042.009a1.5,1.5,0,1,0,.627,2.934l0.042-.009A1.5,1.5,0,1,0,372.478,650.2Zm34.765-52.835c-3.472-2.7-9.349-3.527-15.557-3.306a1.5,1.5,0,0,0-.314.012,69.715,69.715,0,0,0-11.446,1.488l-0.225.049-0.021,0c-9.662,2.1-21.108,6.605-24.541,13.041a7.514,7.514,0,0,0-.435,6.524,6.506,6.506,0,0,0,.386.8h0a6.07,6.07,0,0,0,2.092,2.164,13.412,13.412,0,0,0,.259,3.48,12.785,12.785,0,0,0,5.137,7.785c-8.672,2.362-17.736,6.5-20.725,12.107a7.513,7.513,0,0,0-.435,6.524,6.655,6.655,0,0,0,.386.8h0A6.07,6.07,0,0,0,343.9,651a13.412,13.412,0,0,0,.259,3.48,12.887,12.887,0,0,0,15.29,9.88l27.84-5.945a12.887,12.887,0,0,0,9.92-15.263,13.835,13.835,0,0,0-1.166-3.309,6.111,6.111,0,0,0,1.036-3.688,7.7,7.7,0,0,0-3.119-5.927,13.924,13.924,0,0,0-4.694-2.254l11.308-2.415a12.886,12.886,0,0,0,9.92-15.263,13.835,13.835,0,0,0-1.166-3.309,6.1,6.1,0,0,0,1.036-3.688A7.7,7.7,0,0,0,407.243,597.367Zm-16.56-.276c1.776,3.522,3.638,7.827,2.1,13.5-1.561.246-3.093,0.453-4.525,0.647-1.123.152-2.161,0.293-3.085,0.435,0.128-3.928-1.1-7.062-2.206-9.874a30.33,30.33,0,0,1-1.233-3.548A65.964,65.964,0,0,1,390.683,597.091Zm-20.02,4.286a66.575,66.575,0,0,1,8.129-2.483,31.6,31.6,0,0,0,1.374,4c1.109,2.822,2.251,5.733,1.96,9.375-1.136.288-2.489,0.686-4,1.131-1.011.3-2.074,0.61-3.167,0.918A18.244,18.244,0,0,1,370.663,601.377ZM358.1,615.01a6.889,6.889,0,0,1,3.564-2.82,1.5,1.5,0,1,0-.923-2.855,9.888,9.888,0,0,0-3.461,2.034,5.592,5.592,0,0,1,.51-1.307c1.379-2.586,4.954-5.21,9.852-7.432a20.51,20.51,0,0,0,4.149,12.537c-0.744.185-1.493,0.361-2.24,0.52C363.558,616.968,359.719,616.738,358.1,615.01Zm-0.726,19.223a66.521,66.521,0,0,1,8.129-2.483,31.562,31.562,0,0,0,1.374,4c1.109,2.822,2.251,5.732,1.96,9.374-1.136.288-2.489,0.686-4,1.131-1.011.3-2.074,0.61-3.167,0.918A18.239,18.239,0,0,1,357.378,634.233Zm-12.559,13.633a6.885,6.885,0,0,1,3.564-2.82,1.5,1.5,0,1,0-.924-2.855,9.893,9.893,0,0,0-3.46,2.034,5.632,5.632,0,0,1,.509-1.307c1.38-2.586,4.955-5.21,9.852-7.432a20.518,20.518,0,0,0,4.15,12.537c-0.744.185-1.493,0.36-2.24,0.52C350.273,649.824,346.433,649.593,344.819,647.866Zm41.841,7.61-27.839,5.945a9.88,9.88,0,0,1-11.722-7.574,10.08,10.08,0,0,1-.207-1.735c0.306,0.059.619,0.11,0.947,0.148a28.817,28.817,0,0,0,9.058-.783c3.07-.656,6.11-1.55,8.792-2.34,1.927-.567,3.59-1.056,4.783-1.311l0.053-.011h0.006c1.191-.25,2.885-0.48,4.843-0.745,2.77-.375,5.911-0.8,8.98-1.456h0a28.823,28.823,0,0,0,8.589-2.984c0.288-.171.557-0.349,0.816-0.53a10.864,10.864,0,0,1,.507,1.676A9.88,9.88,0,0,1,386.66,655.476Zm-16.979-20.819a30.267,30.267,0,0,1-1.233-3.548,65.964,65.964,0,0,1,8.95-1.162c1.776,3.522,3.638,7.827,2.1,13.5-1.561.245-3.093,0.453-4.524,0.646-1.123.152-2.162,0.293-3.086,0.435C372.016,640.6,370.786,637.469,369.681,634.657Zm22.429-2.066a4.67,4.67,0,0,1,1.961,3.674c0.1,2.769-3.377,4.927-10.343,6.415q-0.5.106-1.009,0.206a20,20,0,0,0-2.01-13.019C385.8,629.92,389.855,630.842,392.11,632.591Zm7.835-9.971-19.969,4.264q-0.783,0-1.575.033a1.494,1.494,0,0,0-.313.012,69.421,69.421,0,0,0-11,1.395,9.839,9.839,0,0,1-6.7-7.333,10.08,10.08,0,0,1-.207-1.735c0.306,0.059.619,0.11,0.947,0.149a28.853,28.853,0,0,0,9.058-.784c3.07-.656,6.11-1.55,8.792-2.34,1.927-.566,3.59-1.056,4.783-1.311l0.051-.01h0.01c1.19-.25,2.883-0.48,4.841-0.745,2.77-.375,5.91-0.8,8.98-1.456a28.784,28.784,0,0,0,8.589-2.984c0.288-.171.557-0.349,0.816-0.53a10.975,10.975,0,0,1,.507,1.676A9.879,9.879,0,0,1,399.945,622.62Zm7.411-19.211c0.1,2.769-3.377,4.927-10.343,6.415q-0.5.106-1.009,0.206a20,20,0,0,0-2.01-13.019c5.086,0.053,9.146.974,11.4,2.724A4.672,4.672,0,0,1,407.356,603.409ZM364.868,608.2l-0.042.009a1.5,1.5,0,1,0,.626,2.933l0.042-.009A1.5,1.5,0,1,0,364.868,608.2Zm6.532,15.168-0.042.008a1.5,1.5,0,1,0,.627,2.934l0.042-.009A1.5,1.5,0,1,0,371.4,623.366Zm26.96-6.447-0.042.008a1.5,1.5,0,1,0,.626,2.934l0.043-.009A1.5,1.5,0,1,0,398.36,616.919Zm-12.6.427-0.042.009a1.5,1.5,0,1,0,.627,2.934l0.042-.009A1.5,1.5,0,1,0,385.763,617.346Z" transform="translate(-202.688 -195.594)"/>
  <path id="icon_1" data-name="icon 1" class="cls-1" d="M1393.68,226.345a9.026,9.026,0,0,0-5.05-10.481l0.19-.738a9.026,9.026,0,0,0,4.42-17.232l0.12-.45a1.5,1.5,0,1,0-2.91-.745l-0.11.449a9.027,9.027,0,0,0-4.43,17.233l-0.19.737a9.026,9.026,0,0,0-4.42,17.233l-0.19.737a9.024,9.024,0,0,0-4.42,17.233l-4.63,18.047a1.5,1.5,0,1,0,2.9.745l4.63-18.047a9.026,9.026,0,0,0,4.43-17.232l0.19-.737A9.029,9.029,0,0,0,1393.68,226.345Zm-10.1-20.195,2.79,0.717a1.5,1.5,0,0,0,.75-2.913l-2.8-.718A6.031,6.031,0,1,1,1383.58,206.15Zm2.58,37.419a6,6,0,1,1-4.31-7.319A6.007,6.007,0,0,1,1386.16,243.569Zm-2.69-13.635a6.015,6.015,0,1,1,7.31-4.335A6.016,6.016,0,0,1,1383.47,229.934Zm32.01,2a9.031,9.031,0,0,0-5.06-10.48l0.19-.738a9.026,9.026,0,0,0,4.43-17.232l0.11-.45a1.5,1.5,0,1,0-2.91-.746l-0.11.45a9.024,9.024,0,0,0-4.42,17.232l-0.19.738a9.027,9.027,0,0,0-4.43,17.233l-0.19.737a9.026,9.026,0,0,0-4.42,17.233l-4.63,18.046a1.5,1.5,0,1,0,2.91.746l4.63-18.046a9.027,9.027,0,0,0,4.42-17.234l0.19-.737A9.031,9.031,0,0,0,1415.48,231.938Zm-9.92-21.7a6,6,0,1,1,4.32,7.318A6.014,6.014,0,0,1,1405.56,210.24Zm2.4,38.923a6,6,0,0,1-11.82-1.48l2.8,0.718a1.5,1.5,0,0,0,.75-2.913l-2.8-.718A6,6,0,0,1,1407.96,249.163Zm-2.7-13.635a6.016,6.016,0,1,1,7.31-4.335A6.011,6.011,0,0,1,1405.26,235.528Zm32.01,2a9.027,9.027,0,0,0-5.05-10.482l0.19-.737a9.026,9.026,0,0,0,4.42-17.232l0.11-.45a1.5,1.5,0,1,0-2.9-.746l-0.12.45a9.026,9.026,0,0,0-4.42,17.232l-0.19.738a9.024,9.024,0,0,0-4.42,17.232l-0.19.738a9.027,9.027,0,0,0-4.43,17.233l-4.63,18.046a1.5,1.5,0,1,0,2.91.746l4.63-18.047a9.024,9.024,0,0,0,4.42-17.232l0.19-.738A9.032,9.032,0,0,0,1437.27,237.533Zm-9.92-21.7a6,6,0,1,1,4.32,7.319A6.022,6.022,0,0,1,1427.35,215.833Zm2.4,38.924a6,6,0,1,1-4.31-7.319A6.013,6.013,0,0,1,1429.75,254.757Zm-2.69-13.635a6.008,6.008,0,0,1-4.51-5.815l2.8,0.718a1.5,1.5,0,0,0,.74-2.913l-2.79-.718A6,6,0,1,1,1427.06,241.122Zm-35.73-36.086-0.04-.011a1.5,1.5,0,0,0-.75,2.913l0.05,0.011A1.5,1.5,0,0,0,1391.33,205.036Zm12.57,41.534-0.04-.011a1.5,1.5,0,0,0-.75,2.913l0.04,0.011A1.5,1.5,0,0,0,1403.9,246.57Zm26.41-12.377-0.04-.011a1.5,1.5,0,0,0-.75,2.914l0.04,0.011A1.5,1.5,0,0,0,1430.31,234.193Z" transform="translate(-202.688 -195.594)"/>
</svg>
