<svg xmlns="http://www.w3.org/2000/svg" width="73" height="49" viewBox="0 0 73 49">
  <defs>
    <style>
      .cls-1 {
        fill: #0b1121;
        fill-rule: evenodd;
      }
    </style>
  </defs>
  <path id="icon" class="cls-1" d="M561.134,826.476a2.332,2.332,0,0,1-.3-2.614,2.473,2.473,0,0,1-.817-2.506,2.469,2.469,0,0,0-1.278-2.167c0-.031,0-0.061,0-0.092a17.778,17.778,0,0,0-6.187-6.026c-0.069,0-.137,0-0.205.008A2.482,2.482,0,0,0,549.52,812a14.1,14.1,0,0,1-4.57-1,2.489,2.489,0,0,1-2.68.371,2.478,2.478,0,0,1-2.479.879,2.5,2.5,0,0,0-2.2,1.33h-0.03a370.623,370.623,0,0,1-5.634,5.085c-9.462.081-18.348,2.176-25.073,5.921-7,3.9-10.859,9.136-10.859,14.743s3.859,10.848,10.867,14.748C513.727,857.9,522.83,860,532.5,860s18.773-2.1,25.633-5.921c7.007-3.9,10.867-9.137,10.867-14.748C569,834.65,566.21,830.1,561.134,826.476Zm-2.19,12.854c0,3.063-2.67,5.994-7.517,8.254-5.042,2.35-11.764,3.643-18.927,3.643s-13.885-1.293-18.927-3.643c-4.848-2.26-7.517-5.191-7.517-8.254,0-2.929,2.473-5.766,6.963-7.987a43.271,43.271,0,0,1,16.707-3.842,2.447,2.447,0,0,1,0,2.621,2.474,2.474,0,0,1,0,2.638,2.467,2.467,0,0,1,.177,2.264,2.69,2.69,0,0,0,.38,1.239,6.327,6.327,0,0,0,1.942,2.185,22.383,22.383,0,0,0,12.9,3.963h0a29.193,29.193,0,0,0,13.5-3.586c0.068-.033.164-0.082,0.275-0.149A5.129,5.129,0,0,1,558.944,839.33Zm-25.629-18.413a0.8,0.8,0,0,0,0-.689,0.859,0.859,0,0,1-.087-0.376,0.877,0.877,0,0,1,.834-0.875,0.8,0.8,0,0,0,.738-0.986,0.848,0.848,0,0,1-.026-0.206,0.879,0.879,0,0,1,.879-0.878,0.822,0.822,0,0,1,.125.011,0.8,0.8,0,0,0,.911-0.825l0-.046a0.88,0.88,0,0,1,.879-0.867,0.9,0.9,0,0,1,.295.053,0.8,0.8,0,0,0,1.062-.635,0.881,0.881,0,0,1,.867-0.748,0.865,0.865,0,0,1,.465.135,0.8,0.8,0,0,0,1.184-.419,0.877,0.877,0,0,1,1.46-.329,0.8,0.8,0,0,0,1.277-.177,0.877,0.877,0,0,1,1.521-.041,0.8,0.8,0,0,0,1.3.086,0.88,0.88,0,0,1,1.5.222,0.8,0.8,0,0,0,1.219.337,0.877,0.877,0,0,1,1.382.518,0.8,0.8,0,0,0,1.107.563,0.875,0.875,0,0,1,1.231.779,0.8,0.8,0,0,0,.967.76,0.877,0.877,0,0,1,1.063.859,0.914,0.914,0,0,1-.014.145,0.8,0.8,0,0,0,.789.932,0.309,0.309,0,0,0,.043,0,0.88,0.88,0,0,1,.862.878,0.858,0.858,0,0,1-.061.317,0.8,0.8,0,0,0,.61,1.078,0.876,0.876,0,0,1,.579,1.351,0.8,0.8,0,0,0,.389,1.2,0.881,0.881,0,0,1,.576.823,0.87,0.87,0,0,1-.289.648,0.8,0.8,0,0,0,.143,1.287,0.874,0.874,0,0,1,.107,1.454,0.8,0.8,0,0,0,0,1.26,0.874,0.874,0,0,1,0,1.382,0.8,0.8,0,0,0,0,1.258,0.872,0.872,0,0,1,.04,1.346,0.8,0.8,0,0,0-.019,1.18,0.874,0.874,0,0,1-.125,1.374,0.8,0.8,0,0,0-.311.954,2.364,2.364,0,0,1-.589,1.225c-0.108.075-.8,0.427-1.045,0.55a27.2,27.2,0,0,1-12.029,3.032h0a20.774,20.774,0,0,1-11.972-3.67,4.715,4.715,0,0,1-1.452-1.627,1.423,1.423,0,0,1-.194-0.492,0.869,0.869,0,0,1,.189-0.542,0.8,0.8,0,0,0-.084-1.08,0.873,0.873,0,0,1,.056-1.332,0.8,0.8,0,0,0,0-1.258,0.873,0.873,0,0,1,0-1.38,0.8,0.8,0,0,0,0-1.258,0.874,0.874,0,0,1,.059-1.423,0.8,0.8,0,0,0,.064-1.288,0.877,0.877,0,0,1,.2-1.486,0.8,0.8,0,0,0,.306-1.229,0.875,0.875,0,0,1,.483-1.4A0.8,0.8,0,0,0,533.315,820.917Zm24.038,31.765c-6.625,3.687-15.452,5.718-24.853,5.718s-18.228-2.031-24.854-5.718c-6.478-3.606-10.045-8.348-10.045-13.352s3.564-9.741,10.037-13.346c6.375-3.55,14.79-5.566,23.8-5.714a19.986,19.986,0,0,1-1.572,4.512,2.469,2.469,0,0,0,.258,1.1,45.26,45.26,0,0,0-17.811,4.027c-5.064,2.5-7.853,5.851-7.853,9.42,0,3.72,3,7.165,8.441,9.7,5.25,2.446,12.212,3.794,19.6,3.794s14.354-1.348,19.6-3.794c5.443-2.537,8.441-5.983,8.441-9.7a6.948,6.948,0,0,0-.33-2.1,2.887,2.887,0,0,0,.224-0.811,1.6,1.6,0,0,0,0-.415,14.085,14.085,0,0,1,.7-4.159,2.479,2.479,0,0,1,0-2.638,2.471,2.471,0,0,0-.148-0.845c4.2,3.23,6.409,7,6.409,10.971C567.4,844.334,563.832,849.076,557.353,852.682ZM536.678,821.26h0.031a0.8,0.8,0,0,0,.77-0.829l0-.047a0.843,0.843,0,0,1,.8-0.868,0.741,0.741,0,0,1,.258.049,0.8,0.8,0,0,0,1.074-.637,0.834,0.834,0,0,1,.791-0.743,0.74,0.74,0,0,1,.41.126,0.8,0.8,0,0,0,1.2-.42,0.812,0.812,0,0,1,.755-0.585,0.763,0.763,0,0,1,.561.253,0.8,0.8,0,0,0,1.3-.176A0.767,0.767,0,0,1,546,817.34a0.8,0.8,0,0,0,1.322.086,0.775,0.775,0,0,1,.611-0.31,0.805,0.805,0,0,1,.738.534,0.8,0.8,0,0,0,1.238.339,0.745,0.745,0,0,1,.463-0.165,0.829,0.829,0,0,1,.783.685,0.8,0.8,0,0,0,1.121.565,0.734,0.734,0,0,1,.31-0.07,0.845,0.845,0,0,1,.8.853,0.8,0.8,0,0,0,1.6-.041,2.424,2.424,0,0,0-2.4-2.411q-0.082,0-.165.006a2.4,2.4,0,0,0-2.049-1.185,2.3,2.3,0,0,0-.664.1,2.355,2.355,0,0,0-2.943-.494,2.334,2.334,0,0,0-1.44-.493,2.362,2.362,0,0,0-1.561.593,2.331,2.331,0,0,0-1-.221,2.355,2.355,0,0,1-2.367.878,2.412,2.412,0,0,0-2.128,1.331,2.444,2.444,0,0,0-2.4,2.477c0,0.031,0,.062,0,0.1A0.8,0.8,0,0,0,536.678,821.26Zm13.986-.25a2.481,2.481,0,0,1-2.555-.708,2.483,2.483,0,0,1-2.732-.182,2.487,2.487,0,0,1-2.679.371,2.48,2.48,0,0,1-2.48.879,2.491,2.491,0,0,0-2.451,2.113,0.8,0.8,0,0,0,.675.908,0.936,0.936,0,0,0,.118.008,0.8,0.8,0,0,0,.79-0.682,0.875,0.875,0,0,1,1.333-.613,0.8,0.8,0,0,0,1.184-.419,0.877,0.877,0,0,1,1.459-.329,0.806,0.806,0,0,0,.684.234,0.8,0.8,0,0,0,.593-0.411,0.879,0.879,0,0,1,1.522-.04,0.8,0.8,0,0,0,1.3.086,0.879,0.879,0,0,1,1.5.222,0.8,0.8,0,0,0,1.219.337,0.871,0.871,0,0,1,.523-0.175,0.883,0.883,0,0,1,.859.692,0.8,0.8,0,0,0,1.565-.336A2.492,2.492,0,0,0,550.664,821.01ZM519.847,833.9c0.036,0,6.477-.867,6.477-0.867a0.8,0.8,0,0,0,.688-0.7c0.112-.965-0.471-2.89-3.474-3.271a4.232,4.232,0,0,0-.534-0.034c-2.623,0-3.729,2.581-3.947,3.946A0.8,0.8,0,0,0,519.847,833.9ZM523,830.63a2.561,2.561,0,0,1,.333.022,2.451,2.451,0,0,1,1.909.917l-4.263.574A2.266,2.266,0,0,1,523,830.63Zm-5.164,11.144a0.8,0.8,0,0,0,.826-0.765,3.533,3.533,0,0,0-.1-0.952l4.49-.061a0.8,0.8,0,0,0,.785-0.881,4.733,4.733,0,0,0-4.692-4.173,5.287,5.287,0,0,0-1.489.137,4,4,0,0,0-2.936-2.575,3.164,3.164,0,0,0-2.514.321c-1.782,1.054-2.441,3.67-2.468,3.781a0.8,0.8,0,0,0,.161.7,0.822,0.822,0,0,0,.289.219,8.64,8.64,0,0,0-1.39,3.343,0.8,0.8,0,0,0,.789.931H509.6c0.038,0,3.822-.041,6.328-0.041C516.86,841.758,517.5,841.763,517.84,841.774Zm1.237-5.235a3.1,3.1,0,0,1,2.928,1.872l-4.109.056a6.193,6.193,0,0,0-.795-1.033c-0.08-.082-0.162-0.161-0.244-0.239a3.244,3.244,0,0,1,.639-0.378A3.48,3.48,0,0,1,519.077,836.539Zm-6.048-2.34a1.529,1.529,0,0,1,.79-0.219,1.926,1.926,0,0,1,.491.068,2.2,2.2,0,0,1,1.857,1.68l-0.007,0c-0.5.054-4.483,0.2-4.483,0.2A3.9,3.9,0,0,1,513.029,834.2Zm0.15,3.209c0.1-.009.2-0.014,0.294-0.014a3.509,3.509,0,0,1,2.471,1.147,4.322,4.322,0,0,1,.993,1.621c-0.288,0-.625,0-1.009,0-1.7,0-3.982.018-5.3,0.031C510.984,839.133,511.746,837.546,513.179,837.408Zm17.722,3.739a2.6,2.6,0,1,0-4.076,2.613,9.176,9.176,0,0,0-.85,2.315,0.8,0.8,0,0,0,.771.954l8.287,0.219a0.8,0.8,0,0,0,.8-0.742,5.279,5.279,0,0,0-1.52-3.685A5.042,5.042,0,0,0,530.9,841.147Zm-3.537.526a1,1,0,0,1,1.944-.3,4.063,4.063,0,0,0-1.564,1.075A0.992,0.992,0,0,1,527.364,841.673Zm0.457,3.777c0.378-1.046,1.182-2.608,2.632-2.7,0.069,0,.137-0.007.205-0.007a3.469,3.469,0,0,1,2.481,1.172,4.328,4.328,0,0,1,.99,1.7C532.423,845.547,529.412,845.483,527.821,845.45Zm-3.353-2.406s-4.912-1.4-4.924-1.4a0.8,0.8,0,0,0-.631.139l-4.748,3.487a0.8,0.8,0,0,0,.394,1.44s7.35,0.738,7.377.738h0a0.8,0.8,0,0,0,.611-0.291l0,0,2.313-2.836A0.8,0.8,0,0,0,524.468,843.044Zm-7.678,2.283,2.365-1.736,1.269,2.1Zm5.244-.064-0.911-1.51,1.737,0.5Zm2.254-9.429a2.164,2.164,0,1,0,2.163-2.162A2.165,2.165,0,0,0,524.288,835.834Zm2.726,0a0.563,0.563,0,1,1-.563-0.563A0.563,0.563,0,0,1,527.014,835.834Zm13.127,9.52a2.161,2.161,0,1,0,2.164,2.161A2.165,2.165,0,0,0,540.141,845.354Zm0,2.723a0.563,0.563,0,1,1,.563-0.562A0.563,0.563,0,0,1,540.141,848.077Z" transform="translate(-496 -811)"/>
</svg>
