<svg xmlns="http://www.w3.org/2000/svg" width="56" height="73" viewBox="0 0 56 73">
  <defs>
    <style>
      .cls-1 {
        fill-rule: evenodd;
      }
    </style>
  </defs>
  <path id="icon" class="cls-1" d="M1110.46,805.264a0.881,0.881,0,0,0-.95.2l-7.6,7.882h-1.82l7.82-19.9a0.889,0.889,0,0,0-.02-0.661,0.869,0.869,0,0,0-.5-0.446l-3.76-1.317a0.875,0.875,0,0,0-.67.038,0.865,0.865,0,0,0-.43.5l-7.17,21.789h-1.13l5.8-24.521a0.794,0.794,0,0,0-.11-0.652,0.889,0.889,0,0,0-.55-0.374l-3.91-.787a0.879,0.879,0,0,0-.66.131,0.852,0.852,0,0,0-.36.556l-4.33,24.361a23.941,23.941,0,0,0-7.11-1.071,23.663,23.663,0,0,0-10.37,2.358h-8.54l-7.6-7.883a0.883,0.883,0,0,0-.95-0.2,0.861,0.861,0,0,0-.54.79v14.327a0.824,0.824,0,0,0,.17.5l7.72,10.5,3.35,27.874a0.856,0.856,0,0,0,.85.75h31.82a0.856,0.856,0,0,0,.85-0.75l3.35-27.874,7.72-10.5a0.826,0.826,0,0,0,.17-0.5V806.053A0.861,0.861,0,0,0,1110.46,805.264Zm-7.46-9.64,1.7,1.276-0.5,1.274-1.64-1.228Zm0.56,4.2-7.69,19.589c-0.19-.139-0.37-0.275-0.56-0.407l6.69-20.347Zm-2.14,22.757v2.826a23.356,23.356,0,0,0-4.15-4.857l0.77-1.965A21.6,21.6,0,0,1,1101.42,822.58Zm-5.41,5.058a22.053,22.053,0,0,1,1.74,2.568h-12.88a15.58,15.58,0,0,1,5-2.155A18.7,18.7,0,0,1,1096.01,827.638Zm-6.55-1.237a17.009,17.009,0,0,0-7.39,3.805h-3.39c0.33-.379.67-0.746,1.03-1.1a19.172,19.172,0,0,1,8.06-4.754,20.568,20.568,0,0,1,3.91-.765,17.785,17.785,0,0,1,2.75,2.266A20.032,20.032,0,0,0,1089.46,826.4Zm-2.19-3.673a20.9,20.9,0,0,0-10.79,7.478h-2.9a21.835,21.835,0,0,1,11.6-9.163,15.26,15.26,0,0,1,4.07,1.193Q1088.245,822.437,1087.27,822.728Zm-11.72,2.285a23.592,23.592,0,0,0-3.96,5.193h-3.34a19.5,19.5,0,0,1,6.81-7.087,15.5,15.5,0,0,1,5.89-2.1A23.644,23.644,0,0,0,1075.55,825.013Zm18.18-9.554c0.27,0.146.53,0.3,0.78,0.451l-0.7,2.133c-0.2-.117-0.4-0.232-0.61-0.343Zm-2.11,1.456c-0.19-.086-0.39-0.17-0.58-0.25l4.42-24.855,1.78,1.338Zm0.49,2.128a20.9,20.9,0,0,1,8.16,7.772l1.15,2.423v0.968h-1.71a22.014,22.014,0,0,0-7.88-8.539,16.951,16.951,0,0,0-17.66,0,21.875,21.875,0,0,0-7.83,8.54h-1.76V829.14l1.14-2.321a20.963,20.963,0,0,1,8.17-7.776A19.506,19.506,0,0,1,1092.11,819.043Zm9.31-3.993v4.631a23.628,23.628,0,0,0-2.71-2.8l0.72-1.833h1.99Zm2.47-22.134,2.09,0.732-0.63,1.6-1.79-1.339Zm-5.74-3.623-0.48,2.043-1.88-1.409,0.19-1.071Zm-15.15,23.4a22.185,22.185,0,0,1,6.81,1.064l-0.42,2.312a21.268,21.268,0,0,0-16.31,1.477,22.6,22.6,0,0,0-8.5,7.862v-2.829A22.021,22.021,0,0,1,1083,812.691Zm-13.34,2.359a23.684,23.684,0,0,0-5.08,4.634V815.05h5.08Zm-12.94-6.871,6.14,6.361v13.9l-6.14-8.334V808.179Zm41.42,50.122h-30.28l-3.17-26.4h36.62Zm11.14-38.2-6.14,8.335v-13.9l6.14-6.361v11.926Z" transform="translate(-1055 -787)"/>
</svg>
