<svg xmlns="http://www.w3.org/2000/svg" width="17" height="15" viewBox="0 0 17 15">
  <defs>
    <style>
      .cls-1 {
        fill: #0b1121;
        fill-rule: evenodd;
      }
    </style>
  </defs>
  <path id="icon" class="cls-1" d="M1227.54,544h-5.23a1.226,1.226,0,0,0-.92.4,1.337,1.337,0,0,0-.39.959v4.092a1.337,1.337,0,0,0,.39.959,1.226,1.226,0,0,0,.92.4h5.23a1.241,1.241,0,0,0,.92-0.4,1.337,1.337,0,0,0,.39-0.959v-4.092a1.337,1.337,0,0,0-.39-0.959A1.241,1.241,0,0,0,1227.54,544Zm0,8.184h-5.23a1.226,1.226,0,0,0-.92.4,1.335,1.335,0,0,0-.39.959v4.092a1.337,1.337,0,0,0,.39.959,1.226,1.226,0,0,0,.92.4h5.23a1.241,1.241,0,0,0,.92-0.4,1.337,1.337,0,0,0,.39-0.959v-4.092a1.335,1.335,0,0,0-.39-0.959A1.241,1.241,0,0,0,1227.54,552.182Zm10.07-7.779a1.226,1.226,0,0,0-.92-0.4h-5.23a1.241,1.241,0,0,0-.92.4,1.337,1.337,0,0,0-.39.959v4.092a1.337,1.337,0,0,0,.39.959,1.241,1.241,0,0,0,.92.4h5.23a1.226,1.226,0,0,0,.92-0.4,1.337,1.337,0,0,0,.39-0.959v-4.092A1.337,1.337,0,0,0,1237.61,544.4Zm-0.92,7.779h-5.23a1.241,1.241,0,0,0-.92.4,1.335,1.335,0,0,0-.39.959v4.092a1.337,1.337,0,0,0,.39.959,1.241,1.241,0,0,0,.92.4h5.23a1.226,1.226,0,0,0,.92-0.4,1.337,1.337,0,0,0,.39-0.959v-4.092a1.335,1.335,0,0,0-.39-0.959A1.226,1.226,0,0,0,1236.69,552.182Z" transform="translate(-1221 -544)"/>
</svg>
