<svg xmlns="http://www.w3.org/2000/svg" width="50" height="55" viewBox="0 0 50 55">
  <defs>
    <style>
      .cls-1 {
        fill: #ef233c;
        fill-rule: evenodd;
      }
    </style>
  </defs>
  <path id="icon-time" class="cls-1" d="M230,1419.23a25,25,0,0,0,50,0,24.553,24.553,0,0,0-7.28-17.46l1.964-1.95,0.91,0.9a1.954,1.954,0,1,0,2.778-2.75l-4.55-4.51a1.977,1.977,0,0,0-2.778,0,1.933,1.933,0,0,0,0,2.75l0.91,0.9-2.155,2.14a24.861,24.861,0,0,0-12.788-4.7v-1.66h4.359a1.945,1.945,0,1,0,0-3.89H248.439a1.945,1.945,0,1,0,0,3.89h4.645v1.66A24.886,24.886,0,0,0,230,1419.23Zm25-20.88a20.926,20.926,0,1,1-21.121,20.93A21.056,21.056,0,0,1,255,1398.35Zm0,22.49h8.381a1.945,1.945,0,1,0,0-3.89h-6.417v-10.01a1.964,1.964,0,0,0-3.928,0v12A1.921,1.921,0,0,0,255,1420.84Z" transform="translate(-230 -1389)"/>
</svg>
