<svg xmlns="http://www.w3.org/2000/svg" width="31" height="31" viewBox="0 0 31 31">
  <defs>
    <style>
      .cls-1 {
        fill: #ef233c;
        fill-rule: evenodd;
      }
    </style>
  </defs>
  <path id="icon" class="cls-1" d="M826.5,575A15.5,15.5,0,1,0,842,590.5,15.517,15.517,0,0,0,826.5,575Zm0,29.789A14.289,14.289,0,1,1,840.789,590.5,14.305,14.305,0,0,1,826.5,604.788Zm-7.41-24.713a0.6,0.6,0,0,0-.85-0.1,13.386,13.386,0,0,0-2.346,2.369,0.605,0.605,0,0,0,.96.738,12.12,12.12,0,0,1,2.134-2.154A0.6,0.6,0,0,0,819.09,580.075Zm7.41-.429c-1.548,0-2.51.327-3.028,1.031a1.967,1.967,0,0,0-.226.4,2.26,2.26,0,0,0-.987-0.221,4.891,4.891,0,0,0-3.24,1.784,11.108,11.108,0,0,0-3.372,7.862,10.39,10.39,0,0,0,4.928,9.093,4.083,4.083,0,0,0,2,.629,2.438,2.438,0,0,0,.754-0.116,1.919,1.919,0,0,0,.138.216c0.518,0.7,1.48,1.031,3.028,1.031A10.853,10.853,0,0,0,826.5,579.646Zm-3.435,19.268a1.21,1.21,0,0,1-.485.1,2.931,2.931,0,0,1-1.4-.467,9.178,9.178,0,0,1-4.322-8.044,9.91,9.91,0,0,1,3.017-7.006,3.981,3.981,0,0,1,2.384-1.43,1.143,1.143,0,0,1,.824.362,14.563,14.563,0,0,0,.681,2.748,13.959,13.959,0,0,1,0,10.652A11.807,11.807,0,0,0,823.065,598.914Zm3.435,1.227a2.639,2.639,0,0,1-2.053-.538,0.914,0.914,0,0,1-.155-0.421,0.076,0.076,0,0,0,0-.015,8.806,8.806,0,0,1,.63-2.982,20.221,20.221,0,0,0,1.1-5.273c0-.137.008-0.275,0.008-0.413s0-.264-0.007-0.4a20.214,20.214,0,0,0-1.1-5.29,11.85,11.85,0,0,1-.641-2.663l0-.037a1.157,1.157,0,0,1,.17-0.718,2.637,2.637,0,0,1,2.053-.538A9.642,9.642,0,1,1,826.5,600.141Zm-5.862-21.007a0.605,0.605,0,0,0-.826-0.224l-0.022.012a0.605,0.605,0,1,0,.61,1.046l0.013-.007A0.607,0.607,0,0,0,820.638,579.134Zm1.8,11.394h-0.018a0.606,0.606,0,0,0,0,1.211h0.018A0.606,0.606,0,0,0,822.442,590.528Zm-1.06-5.3h-0.017a0.606,0.606,0,1,0,0,1.211h0.017A0.606,0.606,0,1,0,821.382,585.23Zm-1.259,8.84h-0.017a0.606,0.606,0,0,0,0,1.211h0.017A0.606,0.606,0,1,0,820.123,594.07Zm11.141-9.536a1.817,1.817,0,1,0,1.817,1.816A1.819,1.819,0,0,0,831.264,584.534Zm0,2.422a0.606,0.606,0,1,1,.606-0.606A0.606,0.606,0,0,1,831.264,586.956Zm1.332,2.815a2.029,2.029,0,1,0,2.028,2.029A2.031,2.031,0,0,0,832.6,589.771Zm0,2.846a0.818,0.818,0,1,1,.818-0.817A0.819,0.819,0,0,1,832.6,592.617Zm-4.614,2.907h-0.018a0.605,0.605,0,0,0,0,1.21h0.018A0.605,0.605,0,0,0,827.982,595.524Zm0.484-6.661h-0.017a0.606,0.606,0,1,0,0,1.211h0.017A0.606,0.606,0,0,0,828.466,588.863Zm-1.332-5.994h-0.017a0.606,0.606,0,1,0,0,1.211h0.017A0.606,0.606,0,0,0,827.134,582.869Z" transform="translate(-811 -575)"/>
</svg>
