<svg xmlns="http://www.w3.org/2000/svg" width="47" height="55" viewBox="0 0 47 55">
  <defs>
    <style>
      .cls-1 {
        fill: #ef233c;
        fill-rule: evenodd;
      }
    </style>
  </defs>
  <path id="icon-file" class="cls-1" d="M523.931,1444h43.138a1.913,1.913,0,0,0,1.931-1.94v-51.12a1.913,1.913,0,0,0-1.931-1.94H534.715a1.516,1.516,0,0,0-.471.05,0.174,0.174,0,0,0-.094.04c-0.141.05-.235,0.1-0.377,0.15a1.107,1.107,0,0,0-.141.09,1.4,1.4,0,0,0-.377.33l-10.784,12.79a2.14,2.14,0,0,0-.33.53,0.262,0.262,0,0,0-.047.18c-0.047.15-.047,0.29-0.094,0.43v38.42A1.955,1.955,0,0,0,523.931,1444Zm8.853-47.75v5.59h-4.709Zm-6.922,9.43h8.853a1.922,1.922,0,0,0,1.931-1.95v-10.85h28.492v47.24H525.862v-34.44Zm33.531,4.21H531.607a1.945,1.945,0,0,0,0,3.89h27.786A1.945,1.945,0,0,0,559.393,1409.89Zm0,9.38H531.607a1.945,1.945,0,0,0,0,3.89h27.786a1.922,1.922,0,0,0,1.931-1.95A1.945,1.945,0,0,0,559.393,1419.27Z" transform="translate(-522 -1389)"/>
</svg>
