<svg xmlns="http://www.w3.org/2000/svg" width="22" height="29" viewBox="0 0 22 29">
  <defs>
    <style>
      .cls-1 {
        fill-rule: evenodd;
      }
    </style>
  </defs>
  <path id="icon" class="cls-1" d="M413.072,533.644h-2.635a1.736,1.736,0,0,0-1.638-1.186H396.731A1.744,1.744,0,0,0,395,534.211v18.036A1.745,1.745,0,0,0,396.731,554H408.8a1.745,1.745,0,0,0,1.731-1.753v-3.4h2.542A3.957,3.957,0,0,0,417,544.872v-7.25A3.957,3.957,0,0,0,413.072,533.644Zm-3.662,18.6a0.616,0.616,0,0,1-.611.619H396.731a0.616,0.616,0,0,1-.611-0.619V534.211a0.616,0.616,0,0,1,.611-0.619h3.511v2.775l-1.884,1.015a0.57,0.57,0,0,0-.3.5V542.8a0.564,0.564,0,0,0,.56.567h4.361a0.564,0.564,0,0,0,.56-0.567v-4.919a0.57,0.57,0,0,0-.3-0.5l-1.884-1.015v-2.775H408.8a0.615,0.615,0,0,1,.611.619v18.036h0Zm-8.608-14.9,1.62,0.873v4.012h-3.241v-4.012Zm15.078,7.522a2.829,2.829,0,0,1-2.808,2.843H410.53V547.07h2.542a2.186,2.186,0,0,0,2.17-2.2v-7.25a2.186,2.186,0,0,0-2.17-2.2H410.53v-0.646h2.542a2.83,2.83,0,0,1,2.808,2.844v7.25Zm-5.35,1.064v-9.379h2.542a1.073,1.073,0,0,1,1.051,1.065v7.25a1.073,1.073,0,0,1-1.051,1.064H410.53Zm-8.821,4.885h-0.016a0.567,0.567,0,0,0,0,1.134h0.016A0.567,0.567,0,0,0,401.709,550.821Zm-1.623,0h-2.3a0.567,0.567,0,0,0,0,1.134h2.3A0.567,0.567,0,0,0,400.086,550.821Zm3.208-24.037a1.662,1.662,0,0,1-.114-1.116,0.567,0.567,0,0,0-.422-0.679,0.561,0.561,0,0,0-.67.427,2.79,2.79,0,0,0,.157,1.766,1.6,1.6,0,0,1-.047,1.468,0.571,0.571,0,0,0,.3.744,0.551,0.551,0,0,0,.219.045,0.56,0.56,0,0,0,.516-0.345A2.707,2.707,0,0,0,403.294,526.784Zm-5.271,0a1.662,1.662,0,0,1-.114-1.116,0.568,0.568,0,0,0-.422-0.679,0.561,0.561,0,0,0-.67.427,2.783,2.783,0,0,0,.157,1.766,1.6,1.6,0,0,1-.047,1.468,0.571,0.571,0,0,0,.3.744,0.551,0.551,0,0,0,.219.045,0.56,0.56,0,0,0,.516-0.345A2.707,2.707,0,0,0,398.023,526.784Zm10.542,0a1.662,1.662,0,0,1-.114-1.116,0.567,0.567,0,0,0-.422-0.679,0.561,0.561,0,0,0-.67.427,2.782,2.782,0,0,0,.158,1.766,1.6,1.6,0,0,1-.047,1.468,0.569,0.569,0,0,0,.295.744,0.551,0.551,0,0,0,.219.045,0.56,0.56,0,0,0,.516-0.345A2.707,2.707,0,0,0,408.565,526.784Z" transform="translate(-395 -525)"/>
</svg>
