<svg xmlns="http://www.w3.org/2000/svg" width="29" height="29" viewBox="0 0 29 29">
  <defs>
    <style>
      .cls-1 {
        fill-rule: evenodd;
      }
    </style>
  </defs>
  <path id="icon" class="cls-1" d="M587.434,541.832H585.7a7.111,7.111,0,0,0,.543-2.07,0.149,0.149,0,0,0,0-.021,7.1,7.1,0,0,0-5.655-7.682,7.053,7.053,0,0,0-1.231-3.956,0.6,0.6,0,0,0-.064-0.092,7.092,7.092,0,0,0-12.892,4.072v0.01a7.043,7.043,0,0,0,.375,2.281,7.116,7.116,0,0,0-5.766,4.975,0.209,0.209,0,0,0-.008.023,0.214,0.214,0,0,0-.008.032,7.068,7.068,0,0,0-.285,1.989c0,0.146.006,0.293,0.015,0.439h-1.163a0.567,0.567,0,0,0-.566.566v4.527a5.1,5.1,0,0,0,4.526,5.061v1.447a0.567,0.567,0,0,0,.567.567h18.814a0.567,0.567,0,0,0,.567-0.567v-1.447A5.1,5.1,0,0,0,588,546.925V542.4A0.566,0.566,0,0,0,587.434,541.832Zm-7.835-8.765c0.039,0,.078.006,0.117,0.009l0.061,0,0.114,0.013a5.969,5.969,0,0,1,5.262,5.919c0,0.109,0,.217-0.01.325a3.044,3.044,0,0,1-.953.265,2.854,2.854,0,0,1-2.512-1.131c-1.939-2.232-3.746-1.493-5.659-.711a12.978,12.978,0,0,1-2.777.892,0.02,0.02,0,0,1,0-.007l0-.051c0-.053.008-0.106,0.013-0.159,0-.007,0-0.014,0-0.02,0.006-.061.013-0.122,0.021-0.182l0.006-.039c0.006-.047.013-0.093,0.02-0.139,0-.018.006-0.037,0.01-0.055,0.007-.043.015-0.086,0.023-0.129,0-.017.006-0.034,0.01-0.051,0.011-.054.023-0.107,0.035-0.16,0.006-.028.014-0.056,0.021-0.084s0.012-.051.019-0.077,0.016-.061.025-0.092c0.015-.053.03-0.107,0.047-0.16s0.024-.075.037-0.113,0.015-.046.023-0.069a5.981,5.981,0,0,1,1.728-2.552l0.017-.014q0.078-.067.159-0.132l0.069-.056,0.076-.058c0.048-.036.1-0.072,0.145-0.106l0.037-.026c0.057-.04.115-0.079,0.173-0.116l0,0a5.953,5.953,0,0,1,2.718-.929l0.017,0c0.075-.006.151-0.011,0.227-0.014l0.038,0c0.076,0,.152,0,0.228,0l0.174,0,0.05,0,0.125,0.006Zm5.336,7.546a6,6,0,0,1-.489,1.219H573.939l-0.033-.061-0.037-.072c-0.017-.034-0.033-0.068-0.05-0.1s-0.023-.047-0.034-0.071-0.033-.072-0.049-0.109l-0.03-.067-0.051-.126-0.021-.053c-0.023-.059-0.045-0.119-0.066-0.178-0.006-.018-0.012-0.035-0.017-0.052-0.015-.044-0.03-0.087-0.044-0.131-0.007-.024-0.014-0.048-0.022-0.073s-0.022-.074-0.032-0.111-0.015-.053-0.022-0.08l-0.027-.106c-0.007-.027-0.013-0.055-0.02-0.083s-0.016-.07-0.023-0.105-0.012-.056-0.017-0.084-0.014-.07-0.02-0.105-0.01-.057-0.014-0.085-0.012-.072-0.017-0.107-0.007-.05-0.01-0.075a13.686,13.686,0,0,0,3.165-.985c1.851-.757,2.968-1.214,4.375.405a4.01,4.01,0,0,0,3.089,1.536,3.8,3.8,0,0,0,.4-0.021A4.115,4.115,0,0,0,584.935,540.613Zm-6.351-9.873a2.449,2.449,0,0,0,.564-0.552,5.909,5.909,0,0,1,.31,1.736h-0.027c-0.079,0-.159,0-0.239,0s-0.161,0-.241,0l-0.055,0c-0.166.007-.331,0.02-0.5,0.038h-0.013a7.059,7.059,0,0,0-3.115,1.138l-0.007,0c-0.066.044-.132,0.089-0.2,0.136l-0.04.029-0.131.1-0.074.056-0.091.074c-0.056.045-.111,0.091-0.166,0.138l-0.025.021a7.09,7.09,0,0,0-1.875,2.565l-0.007-.006-0.044-.041-0.092-.084-0.053-.046-0.087-.075-0.054-.046-0.094-.076-0.048-.039c-0.045-.035-0.091-0.071-0.137-0.105l-0.007,0c-0.048-.037-0.1-0.072-0.147-0.107l-0.045-.031-0.106-.073-0.053-.035-0.1-.067-0.051-.032-0.119-.072-0.037-.022-0.16-.091-0.017-.009-0.144-.076-0.047-.024-0.117-.058-0.053-.025-0.119-.055-0.048-.022-0.148-.064-0.019-.008-0.173-.068-0.033-.012c-0.046-.018-0.092-0.034-0.138-0.051l-0.052-.018-0.124-.041-0.055-.017c-0.043-.014-0.086-0.027-0.13-0.039l-0.046-.014c-0.118-.033-0.237-0.064-0.357-0.092l-0.047-.01-0.132-.028-0.059-.012-0.126-.023-0.058-.01-0.14-.022-0.043-.006-0.185-.023-0.024,0-0.159-.015-0.058,0-0.129-.009-0.064,0-0.128,0-0.06,0h-0.029a5.906,5.906,0,0,1-.323-1.116,2.477,2.477,0,0,0,.644.084h0.048a3.713,3.713,0,0,0,2.984-2.035c0.623-1.039,1.062-1.529,1.422-1.589a2.576,2.576,0,0,1,1.607.881A3.556,3.556,0,0,0,578.584,530.74Zm-5.084-4.607a5.958,5.958,0,0,1,4.863,2.517,0.988,0.988,0,0,1-.436,1.167,2.422,2.422,0,0,1-2.853-.157c-0.923-.778-1.7-1.269-2.524-1.132-0.86.143-1.5,0.952-2.207,2.123a2.633,2.633,0,0,1-2.034,1.485,1.124,1.124,0,0,1-.766-0.244A5.966,5.966,0,0,1,573.5,526.133Zm-5.891,9.3h0q0.1,0,.2,0c0.055,0,.11,0,0.165,0l0.056,0,0.109,0,0.066,0,0.1,0.007,0.07,0.006,0.092,0.01,0.073,0.008,0.089,0.011L568.7,535.5l0.087,0.014,0.075,0.013,0.085,0.015,0.075,0.015,0.083,0.018,0.075,0.017,0.083,0.02,0.075,0.02,0.08,0.022,0.075,0.021,0.08,0.024,0.074,0.024,0.079,0.026,0.074,0.025,0.078,0.028,0.073,0.028,0.077,0.03,0.072,0.029,0.077,0.033,0.07,0.031,0.078,0.036,0.068,0.032,0.079,0.039,0.064,0.032,0.087,0.046,0.055,0.029c0.046,0.026.093,0.052,0.138,0.079l0.045,0.027,0.093,0.056,0.054,0.035,0.019,0.012a2.716,2.716,0,0,1-2.209,1.2,4.94,4.94,0,0,0-2.143.384,2.8,2.8,0,0,0-1.042,1.232c-0.059.1-.122,0.214-0.193,0.334-0.4.678-2.126,0.048-3.055-.291l-0.115-.041A5.973,5.973,0,0,1,567.609,535.436Zm-5.657,4.842L562,540.294a8.6,8.6,0,0,0,2.726.657,1.816,1.816,0,0,0,1.7-.857c0.073-.125.138-0.24,0.2-0.348a1.9,1.9,0,0,1,.6-0.8,4.26,4.26,0,0,1,1.641-.244,3.8,3.8,0,0,0,3.055-1.626l0.058,0.055,0.047,0.047,0.07,0.071,0.044,0.046,0.07,0.076,0.041,0.045c0.009,0.01.017,0.02,0.026,0.029s-0.008.039-.012,0.058c-0.008.037-.017,0.074-0.024,0.112s-0.009.045-.013,0.067c-0.008.041-.015,0.082-0.022,0.123,0,0.021-.008.042-0.011,0.062-0.007.043-.013,0.086-0.02,0.128,0,0.02,0,.041-0.008.061-0.006.043-.011,0.087-0.016,0.131,0,0.019,0,.039-0.007.059,0,0.044-.009.088-0.013,0.132,0,0.02,0,.04,0,0.059,0,0.045-.007.09-0.01,0.134l0,0.058q0,0.071-.006.141c0,0.017,0,.034,0,0.051q0,0.1,0,.192c0,0.073,0,.146,0,0.219,0,0.022,0,.043,0,0.065,0,0.054,0,.108.009,0.162,0,0.021,0,.043,0,0.064,0,0.073.011,0.145,0.018,0.217,0,0,0,0,0,0,0.007,0.071.016,0.143,0.025,0.214l0.009,0.064c0.008,0.053.016,0.106,0.025,0.159,0,0.021.007,0.042,0.011,0.063,0.012,0.072.025,0.143,0.04,0.214a0,0,0,0,0,0,0c0.014,0.069.03,0.139,0.047,0.208l0.015,0.063c0.013,0.052.027,0.1,0.041,0.156,0,0.02.011,0.041,0.017,0.061,0.019,0.07.04,0.139,0.061,0.208a0.026,0.026,0,0,1,0,0c0.021,0.067.044,0.134,0.067,0.2,0.008,0.02.015,0.04,0.022,0.06,0.018,0.051.037,0.1,0.056,0.151,0.008,0.02.016,0.039,0.023,0.059,0.027,0.067.054,0.134,0.083,0.2H561.863c-0.01-.145-0.016-0.292-0.016-0.438A6.022,6.022,0,0,1,561.952,540.278Zm20.389,12.589H564.659v-0.849h17.682v0.849Zm4.526-5.942a3.965,3.965,0,0,1-3.96,3.96H564.093a3.965,3.965,0,0,1-3.96-3.96v-3.96h26.734v3.96Zm-22.593-2.813H561.95a0.566,0.566,0,0,0,0,1.132h2.324A0.566,0.566,0,1,0,564.274,544.112Zm1.642,0H565.9a0.566,0.566,0,0,0,0,1.132h0.016A0.566,0.566,0,1,0,565.916,544.112Z" transform="translate(-559 -525)"/>
</svg>
