<svg xmlns="http://www.w3.org/2000/svg" width="26" height="29" viewBox="0 0 26 29">
  <defs>
    <style>
      .cls-1 {
        fill-rule: evenodd;
      }
    </style>
  </defs>
  <path id="icon" class="cls-1" d="M490.028,542.5h-0.016a0.567,0.567,0,0,0,0,1.133h0.016A0.567,0.567,0,0,0,490.028,542.5Zm-1.638,0h-2.32a0.567,0.567,0,0,0,0,1.133h2.32A0.567,0.567,0,0,0,488.39,542.5Zm19.045-13.509H494.868a2.1,2.1,0,0,1-.04-0.879h12.607a0.566,0.566,0,0,0,.565-0.566v-1.983a0.565,0.565,0,0,0-.578-0.566l-24.87.566a0.566,0.566,0,0,0-.552.566v1.417a0.566,0.566,0,0,0,.565.566h2.243a3.18,3.18,0,0,0,.035.879h-2.278a0.566,0.566,0,0,0-.565.567v1.416a0.565,0.565,0,0,0,.552.566l3.1,0.071a2.205,2.205,0,0,1-.32,2.421c-1.6,1.632-1.03,3.512-.574,5.022a11.7,11.7,0,0,1,.36,1.385h-1.5a0.566,0.566,0,0,0-.565.567,11.967,11.967,0,0,0,5.52,10.092v2.332a0.566,0.566,0,0,0,.565.567h11.722a0.566,0.566,0,0,0,.565-0.567V551.1a11.967,11.967,0,0,0,5.52-10.092,0.566,0.566,0,0,0-.565-0.567h-0.475a3.434,3.434,0,0,0,.059-0.627,3.347,3.347,0,0,0-6.214-1.736,2.88,2.88,0,0,0-3.765,2.363h-0.851a11.1,11.1,0,0,0-.421-1.714c-0.445-1.474-.83-2.747.3-3.9a3.07,3.07,0,0,0,.738-2.985l11.671,0.266h0.013a0.565,0.565,0,0,0,.565-0.566v-1.982A0.566,0.566,0,0,0,507.435,528.994Zm-24.305,1.429v-0.3h2.018q0.058,0.173.12,0.345Zm2.451-3.441H483.13v-0.3l23.739-.54v0.836H485.581Zm5.833,12.075a11.7,11.7,0,0,1,.36,1.385H490.7a11.1,11.1,0,0,0-.42-1.714c-0.446-1.474-.831-2.747.3-3.9,1.383-1.412.759-3.157,0.257-4.559a4.522,4.522,0,0,1-.442-2.154h1.072a5.946,5.946,0,0,0,.524,2.537c0.552,1.542.827,2.539,0,3.383C490.39,535.667,490.958,537.547,491.414,539.057Zm-2.218,0a11.687,11.687,0,0,1,.359,1.385H488.48a11.1,11.1,0,0,0-.421-1.714c-0.445-1.474-.83-2.747.3-3.9,1.382-1.413.758-3.158,0.256-4.56a4.519,4.519,0,0,1-.441-2.154h1.072a5.932,5.932,0,0,0,.524,2.537c0.551,1.542.827,2.539,0,3.383C488.171,535.667,488.739,537.547,489.2,539.057Zm-3.057-4.228c1.181-1.206.9-2.655,0.478-3.926l-0.012-.035c-0.068-.205-0.14-0.405-0.209-0.6a4.522,4.522,0,0,1-.442-2.154h1.072a5.961,5.961,0,0,0,.524,2.537c0.552,1.542.827,2.539,0,3.383-1.6,1.632-1.03,3.512-.574,5.022a11.51,11.51,0,0,1,.36,1.385h-1.075a11.218,11.218,0,0,0-.421-1.714C485.4,537.254,485.011,535.981,486.139,534.829Zm16.477,2.763a2.224,2.224,0,0,1,2.129,2.85h-4.258A2.227,2.227,0,0,1,502.616,537.592Zm-3.773,1.473a1.775,1.775,0,0,1,.493.071,3.385,3.385,0,0,0-.069.679,3.348,3.348,0,0,0,.06.627h-2.194A1.755,1.755,0,0,1,498.843,539.065Zm-2.311,2.51H505.8a10.762,10.762,0,0,1-5.233,8.727,0.568,0.568,0,0,0-.273.511v2.054H489.7V550.82a0.565,0.565,0,0,0-.272-0.518,10.757,10.757,0,0,1-5.233-8.727h12.333Zm-2.326-7.54c-1.6,1.632-1.03,3.512-.574,5.022a11.51,11.51,0,0,1,.36,1.385h-1.075a11.218,11.218,0,0,0-.421-1.714c-0.445-1.474-.83-2.747.3-3.9,1.383-1.413.759-3.158,0.257-4.56a4.522,4.522,0,0,1-.442-2.154h1.072a4.065,4.065,0,0,0,.209,1.6l0.006,0.022c0.092,0.3.2,0.611,0.309,0.914C494.757,532.194,495.033,533.191,494.206,534.035Zm12.663-3.071-11.446-.261c-0.051-.147-0.1-0.292-0.154-0.434-0.017-.047-0.033-0.1-0.05-0.142h11.65v0.837Z" transform="translate(-482 -525)"/>
</svg>
