<svg xmlns="http://www.w3.org/2000/svg" width="83" height="92" viewBox="0 0 83 92">
  <defs>
    <style>
      .cls-1 {
        fill: #fff;
        fill-rule: evenodd;
      }
    </style>
  </defs>
  <path id="icon" class="cls-1" d="M679.033,4767.53h-7.4a1.8,1.8,0,1,0,0,3.59h7.4A1.8,1.8,0,1,0,679.033,4767.53Zm5.231,0h-0.052a1.8,1.8,0,1,0,0,3.59h0.052A1.8,1.8,0,1,0,684.264,4767.53Zm2.181-13.4h-0.052a1.8,1.8,0,1,0,0,3.59h0.052A1.8,1.8,0,1,0,686.445,4754.13Zm26.072,0.18h-0.052a1.8,1.8,0,1,0,0,3.59h0.052A1.8,1.8,0,1,0,712.517,4754.31Zm-10.851-5.24h-0.051a1.8,1.8,0,1,0,0,3.59h0.051A1.8,1.8,0,1,0,701.666,4749.07Zm43.276-32.57a1.788,1.788,0,0,0-.846-1.11l-5.469-3.15a1.814,1.814,0,0,0-2.465.66l-18.594,32.07a31.247,31.247,0,0,0-6.843-3.18l6.969-25.9a1.8,1.8,0,0,0-1.276-2.2l-6.1-1.63a1.862,1.862,0,0,0-1.386.19,1.806,1.806,0,0,0-.834,1.12l-6.572,26.86q-0.69-.03-1.391-0.03a31.982,31.982,0,0,0-20.182,6.67c-5.343,4.1-9.311,9.59-12.227,14.12H663.8a1.8,1.8,0,0,0-1.8,1.8,37.826,37.826,0,0,0,5.094,18.97,38.341,38.341,0,0,0,12.528,13.05v7.39a1.8,1.8,0,0,0,1.8,1.8h37.417a1.8,1.8,0,0,0,1.8-1.8v-7.39a38.341,38.341,0,0,0,12.528-13.05,37.816,37.816,0,0,0,5.094-18.97,1.8,1.8,0,0,0-1.8-1.8h-3.922a65.286,65.286,0,0,0-7.889-10.22l20.081-32.89A1.8,1.8,0,0,0,744.942,4716.5Zm-33.775-.49,2.574,0.69-6.507,24.18c-0.68-.13-1.37-0.25-2.069-0.35Zm20.389,48.57h3.059a34.114,34.114,0,0,1-16.705,27.69,1.787,1.787,0,0,0-.871,1.62v6.52H683.23v-6.5a1.792,1.792,0,0,0-.87-1.64,34.113,34.113,0,0,1-16.706-27.69h65.9Zm-3.331-3.59H672.044c6.27-9.24,14.27-17.19,28.091-17.19,1.028,0,2.024.04,2.99,0.13,0.061,0,.123.01,0.184,0.01,0.171,0.02.341,0.04,0.51,0.05a0.223,0.223,0,0,0,.08.01C715.452,4745.31,722.548,4752.62,728.225,4760.99Zm-6.246-12.76-0.426-.36c-0.088-.07-0.176-0.15-0.265-0.22-0.25-.21-0.5-0.41-0.754-0.61l17.851-30.79,2.308,1.33Z" transform="translate(-662 -4712)"/>
</svg>
