<svg xmlns="http://www.w3.org/2000/svg" width="76.156" height="92" viewBox="0 0 76.156 92">
  <defs>
    <style>
      .cls-1 {
        fill: #fff;
        fill-rule: evenodd;
      }
    </style>
  </defs>
  <path id="icon" class="cls-1" d="M380.094,4714.16h-5.44v-0.36a1.814,1.814,0,0,0-3.627,0v0.36H367.4v-0.36a1.814,1.814,0,0,0-3.627,0v0.36h-3.627v-0.36a1.814,1.814,0,0,0-3.627,0v0.36h-3.626v-0.36a1.814,1.814,0,0,0-3.627,0v0.36H345.64v-0.36a1.813,1.813,0,0,0-3.626,0v0.36h-3.627v-0.36a1.814,1.814,0,0,0-3.627,0v0.36h-3.627v-0.36a1.813,1.813,0,0,0-3.626,0v0.36h-5.441a9.035,9.035,0,0,0-9.066,8.98v71.88a9.035,9.035,0,0,0,9.066,8.98h58.028a9.035,9.035,0,0,0,9.067-8.98v-71.88A9.035,9.035,0,0,0,380.094,4714.16Zm5.44,80.86a5.422,5.422,0,0,1-5.44,5.39H322.066a5.424,5.424,0,0,1-5.439-5.4v-68.28h68.907v68.29Zm0-71.88H316.627a5.422,5.422,0,0,1,5.439-5.39h5.441v0.36a1.813,1.813,0,0,0,3.626,0v-0.36h3.627v0.36a1.814,1.814,0,0,0,3.627,0v-0.36h3.627v0.36a1.813,1.813,0,0,0,3.626,0v-0.36h3.627v0.36a1.814,1.814,0,0,0,3.627,0v-0.36h3.626v0.36a1.814,1.814,0,0,0,3.627,0v-0.36h3.627v0.36a1.814,1.814,0,0,0,3.627,0v-0.36h3.626v0.36a1.814,1.814,0,0,0,3.627,0v-0.36h5.44a5.422,5.422,0,0,1,5.44,5.39h0Zm-16.815,31.95H358.3l11.7-11.6a1.784,1.784,0,0,0,0-2.54,1.829,1.829,0,0,0-2.565,0l-14.268,14.14h-4.915l11.7-11.59a1.8,1.8,0,0,0,0-2.55,1.829,1.829,0,0,0-2.565,0l-14.268,14.14h-9.684a1.809,1.809,0,0,0-1.813,1.8,19.151,19.151,0,0,0,2.6,9.63,19.5,19.5,0,0,0,5.957,6.34v3.07a1.809,1.809,0,0,0,1.813,1.8h18.167a1.809,1.809,0,0,0,1.813-1.8v-3.07a19.506,19.506,0,0,0,5.957-6.34,19.161,19.161,0,0,0,2.6-9.63A1.81,1.81,0,0,0,368.719,4755.09Zm-9.492,15.25a1.781,1.781,0,0,0-.877,1.59v2.2H343.81v-2.18a1.775,1.775,0,0,0-.876-1.61,15.57,15.57,0,0,1-7.578-11.65h31.449A15.57,15.57,0,0,1,359.227,4770.34Zm-28.944,23.48h-7.441a1.8,1.8,0,1,0,0,3.59h7.441A1.8,1.8,0,1,0,330.283,4793.82Zm5.257,0h-0.052a1.8,1.8,0,1,0,0,3.59h0.052A1.8,1.8,0,1,0,335.54,4793.82Z" transform="translate(-313 -4712)"/>
</svg>
