<svg xmlns="http://www.w3.org/2000/svg" width="76" height="92" viewBox="0 0 76 92">
  <defs>
    <style>
      .cls-1 {
        fill: #fff;
        fill-rule: evenodd;
      }
    </style>
  </defs>
  <path id="icon" class="cls-1" d="M1055.6,4753.93a9.1,9.1,0,0,0-8.74-2.32,1.8,1.8,0,1,0,.94,3.47,5.573,5.573,0,0,1,2.81,0,5.364,5.364,0,0,1,2.43,1.4,1.825,1.825,0,0,0,1.28.52A1.8,1.8,0,0,0,1055.6,4753.93Zm17.54-2.32a9.1,9.1,0,0,0-8.74,2.32,1.8,1.8,0,0,0,1.28,3.07,1.825,1.825,0,0,0,1.28-.52,5.364,5.364,0,0,1,2.43-1.4,5.573,5.573,0,0,1,2.81,0A1.8,1.8,0,1,0,1073.14,4751.61Zm-7.95,14.06a1.822,1.822,0,0,0-2.48-.66,5.46,5.46,0,0,1-5.42,0,1.822,1.822,0,0,0-2.48.66,1.784,1.784,0,0,0,.67,2.45,9.113,9.113,0,0,0,9.04,0A1.784,1.784,0,0,0,1065.19,4765.67Zm14.37,4.22a23.039,23.039,0,0,0,3.89-11.17h0.07a7.19,7.19,0,1,0,0-14.38v-2.99a13.035,13.035,0,1,0-11.5-22.62,14.1,14.1,0,0,0-24.04,0,13.062,13.062,0,1,0-11.5,22.62v2.99a7.19,7.19,0,1,0,0,14.38h0.06a23.153,23.153,0,0,0,3.9,11.17A37.636,37.636,0,0,0,1022,4802.2a1.807,1.807,0,0,0,1.81,1.8h72.38a1.807,1.807,0,0,0,1.81-1.8A37.636,37.636,0,0,0,1079.56,4769.89Zm-43.08-14.77a3.59,3.59,0,1,1,0-7.18v7.18Zm-3.62,45.29h-7.19a33.817,33.817,0,0,1,7.19-19.12v19.12Zm54.28-48.88a3.606,3.606,0,0,1-3.62,3.59v-7.18A3.606,3.606,0,0,1,1087.14,4751.53Zm-48.66-13.48a9.431,9.431,0,1,1,7.98-15.8,13.6,13.6,0,0,0-.51,3.7,13.773,13.773,0,0,0,.09,1.57,1.806,1.806,0,0,0,1.8,1.59,1.408,1.408,0,0,0,.2-0.01,1.8,1.8,0,0,0,1.6-1.98,9.184,9.184,0,0,1-.07-1.17,10.437,10.437,0,0,1,.61-3.5c0.01-.01.01-0.02,0.02-0.03a10.452,10.452,0,0,1,19.62.03,1.8,1.8,0,0,0,1.42,1.17,1.831,1.831,0,0,0,1.72-.68,9.467,9.467,0,1,1,8.56,15.11,1.805,1.805,0,0,0-1.62,1.78v4.51h-39.8v-4.51A1.805,1.805,0,0,0,1038.48,4738.05Zm1.62,18.87v-8.98h39.8v8.98a19.529,19.529,0,0,1-4.27,12.22,2.538,2.538,0,0,0-.29.36,19.959,19.959,0,0,1-30.68,0,2.538,2.538,0,0,0-.29-0.36A19.529,19.529,0,0,1,1040.1,4756.92Zm43.42,43.49h-47.04v-23.06a34.867,34.867,0,0,1,6.22-4.62,23.5,23.5,0,0,0,15.49,7.48v1.48a1.807,1.807,0,0,0,1.81,1.8h0a1.807,1.807,0,0,0,1.81-1.8v-1.48a23.5,23.5,0,0,0,15.49-7.48,34.867,34.867,0,0,1,6.22,4.62v23.06Zm3.62,0v-19.12a33.817,33.817,0,0,1,7.19,19.12h-7.19ZM1060,4785.12a1.8,1.8,0,0,0-1.81,1.8V4787a1.81,1.81,0,0,0,3.62,0v-0.08A1.8,1.8,0,0,0,1060,4785.12Zm-9.03-53.98-0.03-.06a1.816,1.816,0,0,0-2.47-.67,1.781,1.781,0,0,0-.67,2.45l0.03,0.06A1.8,1.8,0,0,0,1050.97,4731.14Zm21.79,52.08a6.56,6.56,0,1,0,6.6,6.56A6.594,6.594,0,0,0,1072.76,4783.22Zm0,9.52a2.965,2.965,0,1,1,2.98-2.96A2.979,2.979,0,0,1,1072.76,4792.74Z" transform="translate(-1022 -4712)"/>
</svg>
