<svg xmlns="http://www.w3.org/2000/svg" width="73" height="63" viewBox="0 0 73 63">
  <defs>
    <style>
      .cls-1 {
        fill-rule: evenodd;
      }
    </style>
  </defs>
  <path id="icon" class="cls-1" d="M936,825.235a24.493,24.493,0,0,0-7.44-17c0.041-.425.062-0.863,0.062-1.3,0-2.539-.681-5.1-2.2-5.1a1.38,1.38,0,0,0-1.022.478h0l0,0c-0.152.162-1.416,2.031-1.416,2.031A42.642,42.642,0,0,0,899.5,797a45.6,45.6,0,0,0-13.113,1.892,2.813,2.813,0,0,0-1.316-.425,2.247,2.247,0,0,0-1.709.671,4.181,4.181,0,0,0-.786,1.1,39.1,39.1,0,0,0-4.717,2.3,4.656,4.656,0,0,0-6.162.418l-5.872,5.946a4.8,4.8,0,0,0-.376,6.288A23.06,23.06,0,0,0,863,825.471c0,0.525.059,1.622,0.06,1.633C864.142,845.55,880.146,860,899.5,860a37.131,37.131,0,0,0,25.684-10.1,5.152,5.152,0,0,0,2.212-1.326l6.626-6.709a5.313,5.313,0,0,0,.488-6.862,33.436,33.436,0,0,0,1.431-7.9C935.944,827.094,936,825.235,936,825.235Zm-8.986-18.3a7.519,7.519,0,0,1-.6,3.324,9.582,9.582,0,0,1,0-6.648A7.523,7.523,0,0,1,927.014,806.931Zm0.941,10.851c-0.805,3.1-3.322,6.34-4.87,8.108a10.93,10.93,0,0,1,.244-2.532,10.707,10.707,0,0,0,.319-1.949,20.984,20.984,0,0,0,1.973-2.2,11.99,11.99,0,0,0,1.639-2.72Q927.635,817.129,927.955,817.782Zm-47.95,24.885a13.781,13.781,0,0,0,4.341-2.584,14.5,14.5,0,0,1-1.5,4.163A31.373,31.373,0,0,1,880.005,842.667Zm6.064-4.451a8.032,8.032,0,0,0,1.367-5.6,2.62,2.62,0,0,0-1.294-2.272,2.412,2.412,0,0,0-2.2.281,0.821,0.821,0,0,0-.223,1.129,0.8,0.8,0,0,0,1.115.225,0.925,0.925,0,0,1,.637-0.155,1.337,1.337,0,0,1,.37.986,6.6,6.6,0,0,1-2.5,6c-3.157,2.616-4.98,2.534-5,2.532l-0.375-.074a26.57,26.57,0,0,1-2.325-1.961c0.3,0.025.637,0.041,0.992,0.041a10.768,10.768,0,0,0,1.442-.094,7.045,7.045,0,0,0,6.09-4.826,0.841,0.841,0,0,0-.412-1.047,0.8,0.8,0,0,0-1.092.471c-1.822,5.245-8.093,3.678-8.365,3.606-0.136-.036-0.337-0.111-0.555-0.172a28.731,28.731,0,0,1-2.193-3.295,9.757,9.757,0,0,1,4.742-5.334,7.12,7.12,0,0,0-.529,2,0.821,0.821,0,0,0,.707.905,0.722,0.722,0,0,0,.092.006,0.81,0.81,0,0,0,.8-0.733c0.016-.161.438-3.939,4.036-4.485a11.962,11.962,0,0,1,7.189,1.306,0.8,0.8,0,0,0,1.1-.285,0.82,0.82,0,0,0-.281-1.115,10.514,10.514,0,0,0-1.481-.7,5.378,5.378,0,0,1,1.743-1.242,4.8,4.8,0,0,1,4.053.217,1.8,1.8,0,0,0,.5.152h0a1.545,1.545,0,0,0,.44,0,5.287,5.287,0,0,1,.765-0.05,10.353,10.353,0,0,1,4.359,1.264,5.857,5.857,0,0,0-1.087,2.873l-9.3-.892a0.805,0.805,0,0,0-.88.815v0.1a7.536,7.536,0,0,0-7.944-1.172,4.077,4.077,0,0,0-2.439,4.487,0.808,0.808,0,0,0,.788.654,0.794,0.794,0,0,0,.159-0.016,0.814,0.814,0,0,0,.63-0.958,2.431,2.431,0,0,1,1.5-2.674c3.687-1.623,6.452.984,7.3,1.943v9.132l-1.808,2.943a0.816,0.816,0,0,0-.122.43v2.242q-1.156-.406-2.267-0.887A13.89,13.89,0,0,0,886.069,838.216ZM881.638,816.3a1.847,1.847,0,0,0-.18.37,2.239,2.239,0,0,0-.079.28,5.663,5.663,0,0,0-.623-0.111,2.873,2.873,0,0,0-.258-1.334,4.272,4.272,0,0,0-3.307-2.228,7.107,7.107,0,0,0-3.446.369,26.25,26.25,0,0,1,6.547-5.551C879.6,810.127,880.407,814.092,881.638,816.3Zm-8.13,12.21a1.254,1.254,0,0,1-.291-0.377L872,825.713a0.8,0.8,0,0,0-.872-0.43,1.271,1.271,0,0,0-.916,1.262,0.765,0.765,0,0,1-.419.587,0.749,0.749,0,0,1-.7,0,2.229,2.229,0,0,1-.279-0.2,1.849,1.849,0,0,1-.433-0.688c-0.439-1.349.459-3.149,2.206-4.32a6.846,6.846,0,0,1,.687-0.406,5.969,5.969,0,0,1,3.334-.687,2.878,2.878,0,0,1,2.188,1.177,1.3,1.3,0,0,1,.135,1.27,0.858,0.858,0,0,1-1.011.33,1.238,1.238,0,0,0-1.557.009,0.822,0.822,0,0,0-.17.965L875.415,827a1.308,1.308,0,0,1,.087.233A10.794,10.794,0,0,0,873.508,828.51Zm-0.081-12.961a5.841,5.841,0,0,1,3.519-.662,2.711,2.711,0,0,1,2.119,1.356,1.358,1.358,0,0,1,.082.6,7.031,7.031,0,0,0-2.265.635,9.007,9.007,0,0,0-2.5,1.709,7.71,7.71,0,0,0-3.834.884l-0.068.037C870.128,818.591,871.364,816.61,873.427,815.549Zm3.422,10.716-0.47-.937a2.322,2.322,0,0,0,.659-0.125l0.61,1.215c-0.224.062-.44,0.13-0.652,0.2A2.857,2.857,0,0,0,876.849,826.265Zm2.138-.773-0.679-1.352a2.351,2.351,0,0,0,.285-0.932,3.223,3.223,0,0,0-.241-1.735,3.974,3.974,0,0,0-1.964-1.83c0.331-.221.724-0.451,1.206-0.707a6.085,6.085,0,0,1,2.26-.518,4.324,4.324,0,0,1,1.531.225,15.912,15.912,0,0,0,.678,2.656,0.754,0.754,0,0,1-.244-0.081,1.253,1.253,0,0,0-1.551.011,0.822,0.822,0,0,0-.17.965l1.213,2.42c0.016,0.033.028,0.068,0.042,0.1-0.065.009-.13,0.016-0.195,0.026A6.128,6.128,0,0,0,878.987,825.492Zm4.008-.884a2.876,2.876,0,0,0-.251-0.731l-0.472-.942a2.357,2.357,0,0,0,.375-0.046c0.253,0.638.508,1.228,0.731,1.724C883.252,824.61,883.124,824.608,883,824.608Zm-12.5,3.992a2.355,2.355,0,0,0,.824-0.664l0.468,0.934a2.9,2.9,0,0,0,.549.753,10.391,10.391,0,0,0-1.721,2.592,17.613,17.613,0,0,1-1.054-3.391A2.28,2.28,0,0,0,870.491,828.6Zm21.037-23.825a4.842,4.842,0,0,1,.792-2.95,1.6,1.6,0,0,1,1.206-.537c2.35-.076,2.923,3.82,2.928,3.858a0.816,0.816,0,0,0,.422.608,0.794,0.794,0,0,0,.733.008,1.3,1.3,0,0,1,1.39-.056c1.556,0.967,2.3,5.459,2.494,8.9q-0.411-.264-0.846-0.514a0.8,0.8,0,0,0-.822.02,0.817,0.817,0,0,0-.375.742c0.06,0.956.145,1.991,0.275,3.066l-1.343-.04c0.255-4.307-3.033-12.481-3.175-12.831a0.8,0.8,0,0,0-1.049-.444,0.818,0.818,0,0,0-.439,1.062c0.034,0.082,3.325,8.261,3.055,12.166l-0.5-.015c-0.171-3.169-.686-4.09-1.135-4.524a1.472,1.472,0,0,0-.354-0.254c-0.051-.19-0.107-0.4-0.168-0.635C893.864,809.524,892.952,806.42,891.528,804.775Zm15.949-.727a0.8,0.8,0,0,0,.743.328,0.9,0.9,0,0,1,.334.024,0.925,0.925,0,0,1,.648,1.128,0.941,0.941,0,0,1-.058.156,4.512,4.512,0,0,0-2.763,1.731,7.862,7.862,0,0,0-.875-0.069c0.011-.035.023-0.069,0.033-0.105a0.815,0.815,0,0,0-.573-0.994,0.8,0.8,0,0,0-.982.58,0.914,0.914,0,0,1-.422.561,0.9,0.9,0,0,1-.69.095,0.927,0.927,0,0,1-.648-1.133,0.889,0.889,0,0,1,.126-0.276,0.823,0.823,0,0,0,.121-0.631,0.811,0.811,0,0,0-.369-0.523,0.932,0.932,0,0,1-.408-1.024,0.913,0.913,0,0,1,.857-0.685,0.8,0.8,0,0,0,.566-0.253,0.82,0.82,0,0,0,.221-0.585,0.928,0.928,0,0,1,.452-0.828,0.9,0.9,0,0,1,1.21.278,0.8,0.8,0,0,0,1.089.237,0.905,0.905,0,0,1,1.268.319,0.931,0.931,0,0,1,.093.7,1,1,0,0,1-.055.152A0.821,0.821,0,0,0,907.477,804.048Zm16.74,2.766c0,0.038,0,.078,0,0.117a8.7,8.7,0,0,0,.872,4.213l-2.094,1.427a17.492,17.492,0,0,0-.342-3.509Zm-2.448,16.149a9.1,9.1,0,0,0-.186,1.045,1.24,1.24,0,0,1-1.364.412,0.8,0.8,0,0,0-.986.572,0.814,0.814,0,0,0,.565,1,3.162,3.162,0,0,0,.84.118,2.681,2.681,0,0,0,.841-0.132,34.668,34.668,0,0,0,.529,5.431,2.971,2.971,0,0,0-.159.252,5.253,5.253,0,0,1-3.257,2.378c-0.253.1-.512,0.2-0.773,0.3a3.809,3.809,0,0,0-.51.258,41.325,41.325,0,0,0-1.362-4.319,54.64,54.64,0,0,0,2.752-6.092,0.833,0.833,0,0,0,.023-0.456,3.164,3.164,0,0,1,2.414-3.581,0.865,0.865,0,0,1,.723.021C921.908,820.222,922.323,820.722,921.769,822.963ZM895.5,838.331l0.072-8.217,3.184,0.3,0.688,8.272Zm-5.379-.416v-8.324l3.844,0.369-0.071,8.225Zm6.209-18.465,3.627,0.106a27.251,27.251,0,0,0,1.226,4.839,0.579,0.579,0,0,1-.269.274,13.13,13.13,0,0,0-4.642-1.6C896.309,822.243,896.351,820.891,896.331,819.45Zm4.74,19.389-0.136-1.639a8.548,8.548,0,0,0,2.694-6.545,0.811,0.811,0,0,0-.8-0.82h0a0.809,0.809,0,0,0-.8.809,7.523,7.523,0,0,1-1.27,4.348s-0.456-5.435-.46-5.458h0a4.182,4.182,0,0,1,1.555-3.527,14.014,14.014,0,0,0,3.171,4.445,14.829,14.829,0,0,0-.878,5.869,3.7,3.7,0,0,0,.154.9h-1.257a0.8,0.8,0,0,0-.736.487l-0.519,1.2Zm2.836,3.378-0.255.989-0.415-2.6Zm1.4-.829-1.058-2.543h1.044c0.092,0.087.188,0.171,0.289,0.25,1.094,0.853,2.272,1.871,3.093,2.6Zm0.4-12.517c-3.157-3.191-4.149-8.132-4.539-12.526a21.873,21.873,0,0,1,7.18,8.911c-0.084.073-.166,0.15-0.244,0.231A14.443,14.443,0,0,0,905.713,828.871ZM907.488,809c0-.984,1.453-1.846,3.109-1.846s3.108,0.862,3.108,1.846c0,0.72-.811,1.412-1.938,1.7a5.171,5.171,0,0,0-3.261-1.048,6.207,6.207,0,0,0-.767.047A1.185,1.185,0,0,1,907.488,809Zm-1.662,9.339a6.318,6.318,0,0,0,4.863.113l-2.275,3.411A23.989,23.989,0,0,0,905.826,818.335Zm2.68-7.06c1.611,0,2.734.8,2.734,1.519s-1.123,1.52-2.734,1.52-2.733-.8-2.733-1.52S906.9,811.275,908.506,811.275Zm3.019,3.8,0.127,1a4.953,4.953,0,0,1-6.229.153l0.209-1.052a5.391,5.391,0,0,0,2.874.771A5.314,5.314,0,0,0,911.525,815.075Zm1.588-.262-0.268-2.091a2.39,2.39,0,0,0-.1-0.627,4.494,4.494,0,0,0,1.776-1.155l0.429,1.121Zm-6.974-4.671a3.433,3.433,0,0,0-1.782,1.7,4.367,4.367,0,0,1-1.571-.542c-0.072-.5-0.158-1.019-0.26-1.53a4.534,4.534,0,0,1,2.806-.8c0.186,0,.368.01,0.549,0.026h0A2.71,2.71,0,0,0,906.139,810.142ZM903,813.184a6.764,6.764,0,0,0,1.264.3c0.012,0.041.024,0.081,0.038,0.121l-0.536,2.7c-0.2-.173-0.408-0.344-0.619-0.512C903.136,815.251,903.1,814.309,903,813.184Zm6.776,11.294c-0.123-.283-0.283-0.63-0.484-1.029l8.058-12.082c-0.026.406-.039,0.815-0.039,1.221,0,2.52.49,5.181,1.539,6.389l-6.043,5.957A3.7,3.7,0,0,0,909.777,824.478Zm7.266-1.447a4.323,4.323,0,0,0,.064.831,47.046,47.046,0,0,1-1.978,4.462,20.2,20.2,0,0,0-1.193-2.228Zm4.343-10.443c0,3.385-.856,5.2-1.233,5.417-0.376-.219-1.233-2.032-1.233-5.417s0.857-5.2,1.233-5.417C920.529,807.39,921.386,809.2,921.386,812.588Zm-5.343-2.169-0.856-2.237c-0.469-1.49-2.2-2.584-4.36-2.656a2.58,2.58,0,0,0-.088-0.938,33.878,33.878,0,0,1,7.169,3.035Zm-15.9-6.94a2.56,2.56,0,0,0-.055,1.01c-0.079-.061-0.16-0.119-0.243-0.171a2.7,2.7,0,0,0-2-.352c-0.074-.277-0.171-0.6-0.3-0.933,0.921-.043,1.849-0.057,2.773-0.039A2.588,2.588,0,0,0,900.139,803.479ZM888.192,843.8l2.129-3.464,1.252,6.838q-1.737-.349-3.406-0.851Zm5.062,3.675-1.428-7.843,4.967,0.453,1.532,7.854A40.539,40.539,0,0,1,893.254,847.474Zm6.713,0.479-1.5-7.717,3.133,0.286s1.14,7.133,1.17,7.3C901.764,847.907,900.987,847.941,899.967,847.953Zm5.393-4.925,3.923,0.356-0.945,3.6a36.865,36.865,0,0,1-4.166.7C904.2,847.571,905.36,843.028,905.36,843.028Zm5.194,1.8a11.408,11.408,0,0,0,.805,1.341c-0.423.135-.851,0.261-1.282,0.381Zm2.382,0.8c-0.066-.108-0.148-0.233-0.25-0.38-0.034-.049-3.5-4.779-1.247-9.926a0.818,0.818,0,0,0-.41-1.074,0.8,0.8,0,0,0-1.06.415,10.759,10.759,0,0,0-.87,5.248c-0.753-.655-1.662-1.424-2.535-2.1a2.108,2.108,0,0,1-.816-1.563,12.882,12.882,0,0,1,3.517-9.623,2.108,2.108,0,0,1,1.745-.645,2.069,2.069,0,0,1,1.547.958,33.767,33.767,0,0,1,3.418,8.993s-0.183.43-.264,0.669a17.184,17.184,0,0,1-2.979,4.907,0.823,0.823,0,0,0,.061,1.15,0.8,0.8,0,0,0,1.135-.061,18.559,18.559,0,0,0,3.3-5.468,2.1,2.1,0,0,1,1.191-1.272c0.25-.1.5-0.2,0.739-0.29a6.772,6.772,0,0,0,4.087-3.1c0.605-1.082,2.988-1,4.925-.671l-3.734,2.563a4.069,4.069,0,0,0-1.669,2.478l-0.828,3.718a28.959,28.959,0,0,1-4.145,2.833A33.533,33.533,0,0,1,912.936,845.627Zm11.4-8.437a2.44,2.44,0,0,1,1-1.489l1.985-1.362a22.191,22.191,0,0,1-3.313,4.313Zm4.74-6.881a18.417,18.417,0,0,0-2.133-.321,7.87,7.87,0,0,0-3.483.333c-0.087-.579-0.187-1.33-0.263-2.15a30.653,30.653,0,0,0,2.539-2.836,20.856,20.856,0,0,0,3.152-5.281A16.892,16.892,0,0,1,929.079,830.309Zm-2.983-16.1c0.162,1.634-1.5,3.847-2.786,5.24a1.936,1.936,0,0,0-.314-0.424,1.879,1.879,0,0,0-1.182-.545,10.065,10.065,0,0,0,1.073-3.87l2.482-1.691A1.862,1.862,0,0,1,926.1,814.205Zm-3.046-8.533-1.013,1.452a2.261,2.261,0,0,0-1.884-1.592,1.745,1.745,0,0,0-1.355.729,36.175,36.175,0,0,0-9.738-3.8,2.585,2.585,0,0,0-.313-0.9,2.5,2.5,0,0,0-1.534-1.182,2.466,2.466,0,0,0-1.342.015,2.517,2.517,0,0,0-.981-0.516,2.475,2.475,0,0,0-1.909.261,2.523,2.523,0,0,0-1.083,1.288,43.055,43.055,0,0,0-5.156.022,3.686,3.686,0,0,0-3.272-1.786,3.2,3.2,0,0,0-2.351,1.081,4.446,4.446,0,0,0-.874,1.645q-0.611.14-1.2,0.3a11.056,11.056,0,0,0-1.3-2.485,44.155,44.155,0,0,1,11.763-1.568A41.043,41.043,0,0,1,923.05,805.672Zm-38.064-5.578c1.418,0.078,2.645,3.132,3.017,4.6a0.812,0.812,0,0,0,.386.509,0.788,0.788,0,0,0,.631.067,0.857,0.857,0,0,1,.727.084c1.593,0.892,2.759,5.337,3.319,7.473,0.117,0.447.219,0.833,0.3,1.126a0.809,0.809,0,0,0,.7.578c0.141,0.214.584,1.174,0.646,4.812,0.025,1.47-.021,2.888-0.057,3.71-0.076.008-.152,0.017-0.226,0.028a6.936,6.936,0,0,0-3.476-.73c-2.769-5.485-5.223-19.7-5.248-19.842a0.8,0.8,0,0,0-.929-0.663,0.813,0.813,0,0,0-.655.94c0.1,0.594,2.412,13.975,5.21,19.916-0.1.038-.2,0.077-0.3,0.12a7.263,7.263,0,0,0-2.786,2.2c-0.317-.081-0.654-0.154-1.007-0.216-0.3-.636-0.92-2-1.447-3.441-1.221-3.343-.849-4.119-0.807-4.191a0.806,0.806,0,0,0,.452-0.527,0.819,0.819,0,0,0-.124-0.7c-1.266-1.763-2.1-6.006-1.464-7.444a0.34,0.34,0,0,1,.251-0.276,0.811,0.811,0,0,0,.724-0.81,23.178,23.178,0,0,1,.358-3.755c0.409-2.236.977-3.056,1.279-3.345A0.656,0.656,0,0,1,884.986,800.094Zm-3.674,5.56c-5.153,2.705-9.22,6.384-11.428,10.846-0.167.338-.534,1.142-0.757,1.634-0.121.266-.237,0.535-0.339,0.809a18.9,18.9,0,0,0-.892,3.3,4.746,4.746,0,0,0-.82,5.036,2.64,2.64,0,0,0,.73.859c0.847,5.848,4.478,11.235,10.261,15.2a38.153,38.153,0,0,0,21.435,6.248,38.82,38.82,0,0,0,19.079-4.781A25.616,25.616,0,0,0,930,832.548l0.589-.449a0.847,0.847,0,0,0,.366-0.562,0.813,0.813,0,0,0-.328-0.788,18.638,18.638,0,0,0,.766-5.278,19.63,19.63,0,0,0-3.687-11.269c0-.053,0-0.106-0.01-0.158a3.42,3.42,0,0,0-.95-2.055,2.468,2.468,0,0,0,1.432-1.8,22.612,22.612,0,0,1,6.215,15.117c0,0.546-.019,1.093-0.05,1.629-0.989,14.123-16.238,25.38-34.841,25.38s-33.853-11.257-34.842-25.381c-0.03-.525-0.047-1.059-0.05-1.586h0c0.059-9.53,6.6-18.216,17.222-23.018A21.851,21.851,0,0,0,881.312,805.654Zm-14.348,4.4,5.872-5.946a3.059,3.059,0,0,1,3.471-.624,32.26,32.26,0,0,0-7.76,6.882,27.279,27.279,0,0,0-2.208,3.187A3.157,3.157,0,0,1,866.964,810.054Zm1.758,30.749a31.5,31.5,0,0,0,5.049,4.87c6.881,5.331,16.019,8.266,25.731,8.266a43.7,43.7,0,0,0,20.854-5.089,5.131,5.131,0,0,0,2.3,1.144,35.621,35.621,0,0,1-23.15,8.376A35.179,35.179,0,0,1,868.722,840.8Zm64.165-.092-6.626,6.709a3.554,3.554,0,0,1-4.369.546,35.835,35.835,0,0,0,3.34-2.293,29.05,29.05,0,0,0,8.123-9.509A3.67,3.67,0,0,1,932.887,840.711ZM881.492,830.27a0.809,0.809,0,0,0-.8.814,4.275,4.275,0,0,1-1.56,2.85,3.384,3.384,0,0,1-2.655.905,1.354,1.354,0,0,1-.974-0.575,3.791,3.791,0,0,1-.3-2.47,0.816,0.816,0,0,0-.62-0.964,0.805,0.805,0,0,0-.954.628,5.373,5.373,0,0,0,.541,3.724,2.974,2.974,0,0,0,2.048,1.265,4.135,4.135,0,0,0,.666.053,5.055,5.055,0,0,0,3.286-1.327,5.824,5.824,0,0,0,2.125-4.089A0.809,0.809,0,0,0,881.492,830.27Zm0.787-20.027a0.821,0.821,0,0,0-.078,1.149,8.916,8.916,0,0,0,1.633,1.458,0.787,0.787,0,0,0,.456.144,0.8,0.8,0,0,0,.662-0.352,0.82,0.82,0,0,0-.205-1.132,7.274,7.274,0,0,1-1.333-1.187A0.8,0.8,0,0,0,882.279,810.243Zm6.156,1.4a0.788,0.788,0,0,0,.329.072,0.8,0.8,0,0,0,.734-0.48,23.693,23.693,0,0,0,1.132-3.164,0.817,0.817,0,0,0-.567-1,0.805,0.805,0,0,0-.986.574,22.019,22.019,0,0,1-1.045,2.919A0.818,0.818,0,0,0,888.435,811.639Zm-3.555,6.313a0.8,0.8,0,0,0-1.135-.068,0.822,0.822,0,0,0-.067,1.15,5.811,5.811,0,0,0,2.858,1.492,0.775,0.775,0,0,0,.2.025,0.806,0.806,0,0,0,.779-0.617,0.814,0.814,0,0,0-.584-0.987A4.262,4.262,0,0,1,884.88,817.952Zm5.53,0.32a0.793,0.793,0,0,0,.334.073,0.8,0.8,0,0,0,.731-0.475,26.083,26.083,0,0,0,.966-2.491,0.817,0.817,0,0,0-.517-1.026,0.8,0.8,0,0,0-1.013.525,24.83,24.83,0,0,1-.9,2.315A0.818,0.818,0,0,0,890.41,818.272Zm7.477-7.571a0.8,0.8,0,0,0,.994-0.559l0.429-1.52a0.817,0.817,0,0,0-.553-1.007,0.8,0.8,0,0,0-.994.559l-0.428,1.52A0.816,0.816,0,0,0,897.887,810.7Z" transform="translate(-863 -797)"/>
</svg>
