<svg xmlns="http://www.w3.org/2000/svg" width="70" height="73" viewBox="0 0 70 73">
  <defs>
    <style>
      .cls-1 {
        fill: #0b1121;
        fill-rule: evenodd;
      }
    </style>
  </defs>
  <path id="icon" class="cls-1" d="M751,820.8c0-6.5-7.336-12.3-19.178-15.183a7.525,7.525,0,0,0-3.9-4.036c-3.087-1.339-6.723-.325-9.386,2.271-0.825-.029-1.677-0.045-2.541-0.045-9.3,0-18.243,1.79-24.764,4.933-0.753-4.951-1.015-11.261.782-17.176a0.837,0.837,0,0,0-.414-0.985,0.854,0.854,0,0,0-1.056.209,21.186,21.186,0,0,0-2.315,3.371c0.077-2.232.38-4.626,1.191-5.855a0.836,0.836,0,0,0-.06-1,0.858,0.858,0,0,0-.986-0.233c-3.409,1.448-5.977,6.795-5.725,11.92l0.026,0.533a79.546,79.546,0,0,0,1.7,13.922A10.46,10.46,0,0,0,681,820.8a8.718,8.718,0,0,0,.247,2.055c0.138,0.568,6.608,26.669,6.767,26.94,1.746,2.973,5.355,5.524,10.439,7.379a55.835,55.835,0,0,0,35.191-.034c5.107-1.878,8.708-4.458,10.415-7.462,0.4-.713,6.578-26.308,6.717-26.906A8.7,8.7,0,0,0,751,820.8Zm-3.985,9.869c-5.021,5.866-17.441,9.8-31.017,9.8s-25.987-3.928-31.012-9.792q-0.279-1.206-.573-2.477c5.717,5.818,17.9,9.6,31.585,9.6s25.875-3.781,31.589-9.6Q747.3,829.461,747.017,830.666ZM686.47,821.44a1.787,1.787,0,0,0,1.24,1.2,1.851,1.851,0,0,0,.488.066,1.807,1.807,0,0,0,1.2-.459,18.852,18.852,0,0,0,1.489-1.493l1.386-1.112a2.524,2.524,0,0,0,.839-2.754c-0.044-.14-0.093-0.295-0.144-0.463,5.756-2.93,13.661-4.657,21.941-4.8-0.043.574,0,1.73,0.006,1.739a0.843,0.843,0,0,0,.529.689,35.306,35.306,0,0,0,13.745,2.408c0.252,0,.789-0.008.792-0.008a0.849,0.849,0,0,0,.7-0.391,12.5,12.5,0,0,0,.884-1.652c0.107-.243.2-0.486,0.293-0.73,8.852,2.486,14.831,6.956,15.795,11.819a19.6,19.6,0,0,1-7.179,5.614c-2.424.76-6.951,1.017-11.332,1.266-6.4.363-10.394,0.647-11.769,1.858a0.836,0.836,0,0,0-.071,1.188,0.857,0.857,0,0,0,1.2.07c1-.883,6.4-1.19,10.737-1.436,1.417-.08,2.849-0.162,4.228-0.261A63.776,63.776,0,0,1,716,836.109q-1.3,0-2.583-.047a2.5,2.5,0,0,1,.416-1.549c1.67-2.584,7.5-3.187,10.823-3.317,12.632-.492,18.093-2.613,18.261-7.091,0.043-1.154-.548-2.734-3.606-3.707a16.054,16.054,0,0,0-3.3-.641,0.841,0.841,0,1,0-.123,1.678c1.143,0.083,5.4.767,5.33,2.608-0.05,1.321-.181,4.831-16.63,5.472-6.5.253-10.6,1.63-12.187,4.091a4.131,4.131,0,0,0-.685,2.375,58.54,58.54,0,0,1-15.783-3,28.523,28.523,0,0,1-9.739-5.42c2.793-2.1,4.021-1.406,6.484-.016a26.783,26.783,0,0,0,3.654,1.8,15.445,15.445,0,0,0,5.442,1.144,8.062,8.062,0,0,0,4.144-1.048,6.438,6.438,0,0,0,2.612-2.806,0.836,0.836,0,0,0-.462-1.091,0.856,0.856,0,0,0-1.11.452c-0.085.2-2.169,4.824-10.007,1.783a25.467,25.467,0,0,1-3.432-1.7c-2.6-1.471-4.691-2.645-8.511.262q-0.36-.415-0.665-0.841a9.394,9.394,0,0,1,2.1-4.163C686.45,821.372,686.46,821.406,686.47,821.44Zm40.041-6.736a36.252,36.252,0,0,1-6.7-.981,3.4,3.4,0,0,1,6.784.256A3.35,3.35,0,0,1,726.511,814.7ZM749.3,820.8a7.228,7.228,0,0,1-.5,2.625c-1.951-4.821-7.883-8.946-16.462-11.353a11.156,11.156,0,0,0,.072-4.571C742.72,810.223,749.3,815.365,749.3,820.8Zm-22.056-17.678A5.945,5.945,0,0,1,730.4,806.6c0.007,0.022.069,0.189,0.091,0.253a9.663,9.663,0,0,1-.485,6.887,11.074,11.074,0,0,1-.53,1.043q-0.64,0-1.251-.008a5.1,5.1,0,0,0-10.079-1.517c-0.577-.183-1.1-0.37-1.568-0.555a10.319,10.319,0,0,1,.9-4.394C719.416,803.949,723.794,801.623,727.246,803.119ZM716,805.487c0.383,0,.763,0,1.14.009a12.438,12.438,0,0,0-1.973,4.447c-8.491.107-16.645,1.85-22.667,4.834-0.314-1.171-.663-2.635-0.972-4.306C697.853,807.3,706.725,805.487,716,805.487ZM691.5,817.4a0.865,0.865,0,0,1-.288.941l-0.482.386A58.6,58.6,0,0,1,688.2,807.07c-0.335-4.31-.6-7.721,1.174-11.423C687.97,805.114,690.554,814.442,691.5,817.4Zm-7.146-18.489a13.362,13.362,0,0,1,2.573-8.576,23.908,23.908,0,0,0-.395,3.93,41.845,41.845,0,0,0,.1,4.221,30.677,30.677,0,0,0-.123,8.718,61.412,61.412,0,0,0,2.83,12.749c-0.255.272-.64,0.666-1.069,1.048a0.1,0.1,0,0,1-.1.024,0.1,0.1,0,0,1-.071-0.069,79.43,79.43,0,0,1-3.719-21.511Zm0.484,16.55c0.3,1.258.645,2.581,1.042,3.975a12.652,12.652,0,0,0-2.674,3.99,7.242,7.242,0,0,1-.5-2.624A8.326,8.326,0,0,1,684.834,815.456Zm57.732,33.412c-1.49,2.607-4.868,4.983-9.515,6.692A50.112,50.112,0,0,1,716,858.317c-12.362,0-23.257-3.846-26.509-9.354-0.3-.667-1.692-6.274-3.788-15.228,6.162,5.176,17.586,8.411,30.3,8.411s24.145-3.237,30.306-8.417C744.229,842.632,742.856,848.206,742.566,848.868ZM710.19,826.631a0.835,0.835,0,0,0,.023,1.189,0.856,0.856,0,0,0,1.2-.022c1.489-1.532,5.165-1.764,7.849-1.933a26.782,26.782,0,0,0,2.709-.253c0.425-.075,1.716-0.3,1.8-1.362,0.112-1.436-1.992-2.124-4.065-2.608-1.764-.412-3.51-0.637-3.583-0.647a0.842,0.842,0,1,0-.218,1.669,24.5,24.5,0,0,1,5.671,1.309c-0.655.1-1.635,0.162-2.42,0.212C716.028,824.383,712.137,824.629,710.19,826.631Zm-16.81-3.656c0.823,0.732,2.388.927,3.825,0.927a20.841,20.841,0,0,0,2.966-.231,0.842,0.842,0,1,0-.26-1.663c-1.747.267-4.67,0.361-5.395-.285a0.2,0.2,0,0,1-.084-0.19c0.033-.684.721-1.541,1.937-2.414a14.514,14.514,0,0,1,2.1-1.237,0.837,0.837,0,0,0,.415-1.116,0.853,0.853,0,0,0-1.127-.412c-0.5.229-4.89,2.314-5.024,5.1A1.864,1.864,0,0,0,693.38,822.975Zm4.225-2.94a0.99,0.99,0,0,0,.331.738c0.543,0.494,1.534.432,3.923,0.23,1.4-.119,4.26-0.361,4.916.022-0.068.516-.689,1.431-2.263,2.559a15.96,15.96,0,0,1-4.154,2.153,0.839,0.839,0,0,0-.563,1.05,0.848,0.848,0,0,0,.812.6,0.864,0.864,0,0,0,.249-0.037c2.17-.659,7.624-3.533,7.624-6.414a1.454,1.454,0,0,0-.493-1.1c-0.969-.881-3.113-0.771-6.273-0.5-0.414.035-.89,0.075-1.333,0.105a23.714,23.714,0,0,1,2.9-1.3,0.839,0.839,0,0,0,.5-1.083,0.852,0.852,0,0,0-1.094-.492c-0.048.018-1.184,0.441-2.34,1C698.4,818.494,697.605,819.213,697.605,820.035Zm7.306-5.1a0.838,0.838,0,0,0,.111-0.007c0.036,0,3.663-.471,8.18-0.654a0.841,0.841,0,1,0-.07-1.681c-4.592.186-8.294,0.662-8.331,0.667A0.841,0.841,0,0,0,704.911,814.931Zm1.934,1.683h-0.008a0.841,0.841,0,1,0-.007,1.682c1.3,0.011,3.415.412,3.816,1.237,0.28,0.577-.343,1.5-0.739,2a0.836,0.836,0,0,0,.144,1.181,0.857,0.857,0,0,0,1.193-.142c1.137-1.436,1.451-2.7.933-3.77C711.159,816.71,707.283,816.618,706.845,816.614Zm-0.138,13.915c-2.506,2.348-6.666,1.632-9.715.619a33,33,0,0,1-6.35-2.961,0.853,0.853,0,0,0-1.173.258,0.836,0.836,0,0,0,.26,1.161,34.187,34.187,0,0,0,6.691,3.127,18.245,18.245,0,0,0,5.7,1.048,8.12,8.12,0,0,0,5.753-2.03,0.835,0.835,0,0,0,.034-1.189A0.856,0.856,0,0,0,706.707,830.529Zm22.9-7.858a0.842,0.842,0,0,0-.018,1.683,23.545,23.545,0,0,1,6.1.913c-2.512.775-7.147,1.153-11.36,1.5-1.114.091-2.266,0.185-3.408,0.286-9.234.82-11.162,5.039-11.24,5.218a0.846,0.846,0,0,0,.444,1.111,0.881,0.881,0,0,0,.338.069,0.842,0.842,0,0,0,.775-0.506,5.311,5.311,0,0,1,1.8-1.811c1.308-.888,3.763-2.026,8.03-2.4,1.135-.1,2.284-0.194,3.395-0.284,7.855-.64,12.745-1.129,14.254-3.037a2.116,2.116,0,0,0,.446-1.689,0.85,0.85,0,0,0-1.678.268,0.488,0.488,0,0,1,.007.112,23.816,23.816,0,0,0-7.872-1.424h-0.019Zm2.952-5.087a23.164,23.164,0,0,1,6.463,1.657,0.859,0.859,0,0,0,.327.065,0.848,0.848,0,0,0,.784-0.517,0.838,0.838,0,0,0-.456-1.1,24.834,24.834,0,0,0-6.941-1.778A0.841,0.841,0,1,0,732.558,817.584Zm-21.246-1.7a0.846,0.846,0,0,0,.85.842,9.709,9.709,0,0,1,6.292,1.871,15.522,15.522,0,0,0,3.151,1.665,17.481,17.481,0,0,0,5.763.8,36.257,36.257,0,0,0,4.624-.3,0.841,0.841,0,0,0,.721-0.951,0.849,0.849,0,0,0-.961-0.714c-0.061.009-6.168,0.853-9.55-.4a13.917,13.917,0,0,1-2.822-1.5,11.378,11.378,0,0,0-7.218-2.142A0.844,0.844,0,0,0,711.312,815.884Z" transform="translate(-681 -787)"/>
</svg>
